<?xml version="1.0" encoding="UTF-8"?>
<svg id="Layer_2" data-name="Layer 2" xmlns="http://www.w3.org/2000/svg" xmlns:xlink="http://www.w3.org/1999/xlink" viewBox="0 0 2340 1080">
  <defs>
    <style>
      .cls-1 {
        fill: #943e56;
      }

      .cls-1, .cls-2, .cls-3, .cls-4, .cls-5, .cls-6, .cls-7, .cls-8, .cls-9, .cls-10, .cls-11, .cls-12, .cls-13, .cls-14, .cls-15, .cls-16, .cls-17, .cls-18, .cls-19, .cls-20, .cls-21, .cls-22, .cls-23, .cls-24, .cls-25, .cls-26, .cls-27, .cls-28, .cls-29, .cls-30, .cls-31, .cls-32, .cls-33, .cls-34, .cls-35, .cls-36, .cls-37, .cls-38, .cls-39, .cls-40, .cls-41, .cls-42, .cls-43, .cls-44, .cls-45, .cls-46, .cls-47, .cls-48, .cls-49, .cls-50, .cls-51, .cls-52, .cls-53, .cls-54, .cls-55 {
        stroke-width: 0px;
      }

      .cls-2 {
        fill: #fdcd7e;
      }

      .cls-3 {
        fill: #fdd374;
      }

      .cls-4 {
        fill: #91434f;
      }

      .cls-5 {
        fill: #914a59;
      }

      .cls-6 {
        fill: #c3e598;
      }

      .cls-7 {
        fill: #88d560;
      }

      .cls-8 {
        fill: #783a56;
      }

      .cls-9 {
        fill: #e0f6cc;
      }

      .cls-10 {
        fill: #8f414e;
      }

      .cls-11 {
        fill: #fdfefd;
      }

      .cls-12 {
        fill: #ddedc7;
      }

      .cls-13 {
        fill: #9c899b;
      }

      .cls-14 {
        fill: #fdaa65;
      }

      .cls-15 {
        fill: #f48162;
      }

      .cls-16 {
        fill: #fdac66;
      }

      .cls-17 {
        fill: #dff2c8;
      }

      .cls-18 {
        fill: #fdfed4;
      }

      .cls-19 {
        fill: #fbfdc3;
      }

      .cls-20 {
        fill: #a04e51;
      }

      .cls-21 {
        fill: none;
      }

      .cls-22 {
        fill: #bfe38f;
      }

      .cls-23 {
        fill: #dcfd9c;
      }

      .cls-24 {
        fill: #fcfdcf;
      }

      .cls-25 {
        fill: #e2fca0;
      }

      .cls-26 {
        fill: #edf3d8;
      }

      .cls-27 {
        fill: #864d5c;
      }

      .cls-28 {
        fill: #fafda4;
      }

      .cls-29 {
        fill: #fcfdb4;
      }

      .cls-30 {
        fill: #fafda6;
      }

      .cls-31 {
        fill: #bd685f;
      }

      .cls-32 {
        fill: #f28162;
      }

      .cls-33 {
        fill: #b65d56;
      }

      .cls-34 {
        fill: #e66a5b;
      }

      .cls-56 {
        clip-path: url(#clippath);
      }

      .cls-35 {
        fill: #f2bfb5;
      }

      .cls-36 {
        fill: #fdfee4;
      }

      .cls-37 {
        fill: #fdfebc;
      }

      .cls-38 {
        fill: #89d863;
      }

      .cls-39 {
        fill: #f1fdbb;
      }

      .cls-40 {
        fill: #aa3c4b;
      }

      .cls-41 {
        fill: #fdfed2;
      }

      .cls-42 {
        fill: #b64455;
      }

      .cls-43 {
        fill: #d77461;
      }

      .cls-44 {
        fill: #fdfefc;
      }

      .cls-45 {
        fill: #fb8462;
      }

      .cls-46 {
        fill: #c3ea99;
      }

      .cls-47 {
        fill: #533657;
      }

      .cls-48 {
        fill: #e4f5d2;
      }

      .cls-49 {
        fill: #fdfee0;
      }

      .cls-50 {
        fill: #fdb566;
      }

      .cls-51 {
        fill: #f9fdaa;
      }

      .cls-52 {
        fill: #fdfeef;
      }

      .cls-53 {
        fill: #a7e36c;
      }

      .cls-54 {
        fill: #dbefc1;
      }

      .cls-55 {
        fill: #d8eebc;
      }
    </style>
    <clipPath id="clippath">
      <rect class="cls-21" width="2340" height="1080"/>
    </clipPath>
  </defs>
  <g id="Layer_1-2" data-name="Layer 1">
    <g class="cls-56">
      <g>
        <path class="cls-47" d="M.1,283C.1,190.3.1,97.6,0,4.8,0,1,.6,0,4.7,0c776.8.1,1553.7.1,2330.5,0,4.1,0,4.8.9,4.7,4.8-.1,67-.1,134-.1,201-1.7,2.3-4.2,3.3-6.8,4.2-25.6,8.9-50,20.7-74.7,31.9-34.8,15.8-69.8,31-107.7,38.2-31.9,6-64.2,8.1-96.5,6.7-38.3-1.7-76.4-5.7-114.5-9.9-28.8-3.2-57.7-5.8-86.7-6.5-31.9-.8-63.4,1.2-94.3,9.1-5.7,1.4-11.2,3.2-16.8,5.1-3.6,1.3-7.2,3-11.3,2.7-3.5-.5-7,0-10.5,0-342.7,0-685.5,0-1028.2,0-8,0-15.8-2-23.8-1-4.6,1-8.9-.5-13.2-1.4-36.8-7.9-73.2-17.3-110.5-22.9-14.4-2.2-29-3.4-43.6-4.4-39-2.7-76.8,4.8-114.8,11.2-18.1,3-36.1,6.4-54.3,8.3-21.5,2.2-43.1,2.3-64.8.9-34.4-2.3-67.8-10-101.1-18.3-24.6-6.1-49.4-11.3-73.8-18.1-.9-.3-1.9-.6-2.4-.4,9.8,1.7,19,6.4,28.5,10.3,19.5,8.1,39.1,15.7,58.7,23.3,2.2.9,4.4,1.6,6.3,3.1,2.1,1.8,4.9,2.5,6.8,4.5,1.8,1.8,1.7,3.4-1,4.3-2.3.7-4.6.6-6.9.6-54.5,0-108.9.2-163.4-.1-1,0-1.9,0-2.9.1-5.4-.2-10.6-1.4-15.3-4.2Z"/>
        <path class="cls-14" d="M2339.9,1153.9c-2.5,0-5.1-.1-7.6-.1-191,0-382.1,0-573.1,0-583.8,0-1167.6,0-1751.5,0-2.5,0-5.1,0-7.6.1,0-58.8,0-117.7,0-176.5,1.5-2.8,4.4-3,7-3.5,16.4-3.5,33.1-4.8,49.8-6.4,24.4-2.2,49-3.1,73.4-4.5,31.7-1.8,63.5-2.2,95.3-1.2,35,1.2,70,3.9,104.6,10.6,35.3,6.9,69.5,17.7,102.6,31.6,9,3.8,18.5,5.7,27.6,9,.5.2,1,.4,1.4-.3,2.7-4.3,7.2-3.2,11.1-3.2,31,0,62.1-1.4,93,.4,23.8,1.4,46.8-4,70.2-4.8,18.3-.6,36.5-2.7,54.8-2.7,15.6,0,31.2,0,46.8,0,25.3,0,50.6,1.6,75.9,3.2,31.1,2,62.4,2.6,93.5.9,30.6-1.6,60.7-7.5,90.5-14.6,34.5-8.2,68.8-17.2,103.7-24,36.2-7,72.6-12.3,109.4-14.9,27.2-1.9,54.4-3.7,81.7-3.1,55.4,1.2,110.5,5.7,165,15.9,49.8,9.3,98.2,23.4,146.4,38.6,6,1.9,12,3.5,17.9,5.4,3,1,6,1.3,9.2.4,3-.9,6.2-.8,9.3-.8,98.6,0,197.3,0,295.9,0,3.1,0,7.6-1.1,8.9,1.4,2.2,4.1,4.3,1.3,6.3,1.1,9.1-1.1,18.2-2.3,27.3-3.4,39.5-4.7,78.9-9.7,118.3-14.9,8.5-1.1,17-2.1,25.6-2.8,9.1.2,18.3-.2,27.4.2,16.2,1.7,29.9,9.3,43.1,18.1,2.5,1.7,4.7,3.1,7.9,1.1,1.8-1.1,4.2-.8,6.3-.8,41.6,0,83.3,0,124.9,0,2.7,0,5.5-.2,7.8,1.7v142.6Z"/>
        <path class="cls-45" d="M.1,763.5v-81.8c2.2-2.3,5.1-2.7,8-3,27.9-3.2,55.8-5.9,83.8-7.2,21.4-1,42.8-1.4,64.2-2.4,26.9-1.3,53.8-.4,80.7-.9,6.6-.1,13.2-1.3,19.8-1.3,38.6.5,77.1,2.4,115.5,5.5,34.9,2.9,69.8,6.5,104.8,8.7,25.8,1.7,51.7,3.5,77.5,4.8,37.8,2,75.6,2.6,113.4,1.9,35.9-.7,71.5-4.6,107-9.6,23.5-3.3,47-7.4,70.7-9.5,16.1-1.4,32.3-.6,48.4,1,35.3,3.4,70.3,9.8,105.6,13.2,26.2,2.5,52.5,3.2,78.6-1.9,2.5-.5,5-1,7.5-.5,3.6,1.2,7.3.5,11,.5,23.9,0,47.8,0,71.6,0,3.6,0,7.5-.3,9.8,3.6,0,4-3.6,4.2-6.1,4.9-23.8,7.1-47.9,12.2-72.6,15.1-41.2,4.8-82.6,4.1-123.8,3.1-35.5-.9-70.9-.9-106.4-.6-27.9.2-55.5,4.4-83.1,8.8-22.9,3.6-45.8,7.5-68.9,9.5-31.8,2.8-63.4,1.3-94.9-4.1-26.9-4.5-53.8-9.1-81-11.8-18.1-1.8-36.2-1.4-54.3-1.6-16.8-.2-33.6,0-50.2,1.3-28.9,2.3-57.8,5.1-86.6,8.6-20.3,2.5-40.6,4.7-61.2,8,4.5.9,8.5.8,12.4.8,71.9,0,143.9,0,215.8,0,4,0,9.1,2,11.2-4.2.5-1.5,3.1-.9,4.9-.4,38.8,11.3,77.7,22.4,118.3,25.4,29,2.1,58.1,2.2,87.1,1.2,46.2-1.6,92.1-6.9,137.7-14,36-5.6,72.3-5.4,108.4-4,11.6.5,23.2,0,34.9.6,42.2,2.6,84.5.8,126.7,1,9.8,0,19.8,0,29.6-1.8,2.1-.4,4.3-.5,6.4-.3,18.8,2,37.6-1.1,56.4.1,15.3,1,30.6,1.9,45.9,3.2,24.3,2.1,48.5,4.5,72.7,7.1,34.7,3.8,69.4,7.2,104.1,10.2,22.7,1.9,45.4,3.6,68.2,5.2,21.2,1.5,42.3,2.9,63.5,4.2,17.3,1.1,34.6,1.8,51.9,2.7,16.9.9,33.8,1.7,50.7,3.1,8.3.7,16.7,1,25.1,1.3,21.6.8,43.2,1.6,64.8,2.8,40.1,2.2,80.2,2.7,120.3,2,58.6-1,116-9.7,172.1-27,19.9-6.2,39.6-13.2,60.3-16.7,2.5-.4,4.9-.7,7.5-.5,2.9.2,5.6-.1,8-2.6,2.9-3,6.6-4.3,10.1-.5,1.1,1.1,2.4,1.2,3.7,1.2,35.7,1.4,71.3.4,107,.6,3,0,5.7-.7,8.3-2.5,3-2.1,6.4-3.5,9,.6,1,1.5,1.5.5,2.2,0,3-1.8,6.1.2,8.7,0,6.3-.7,12.1,2.1,18.3,1.4,6.3-.7,12.8-2,18.9,1.2v114.6c-2.1,1.9-4.7,1.8-7.2,1.7-19.7-.5-39.4.1-59,1.4-20.4,1.3-40.8,3-61.1,4.9-40.7,3.9-81.2,10.4-122,13.6-45.7,3.6-89.4,15.1-132,31.6-35.3,13.6-71.9,21.2-109.8,23.6-51.8,3.2-102.2-4.2-152.4-15.4-45-10-88.9-23.7-132.7-37.8-60.7-19.5-121.6-38.2-184.3-50.6-24.5-4.9-49.2-8.3-74.1-10-15-1-30-2.3-44.9-2-28.6.7-57.2,1.9-85.7,5.1-63.6,7.1-126.4,19.3-189.2,30.8-54.1,9.9-108.1,19.9-162.7,26.5-24.7,3-49.6,5-74.5,6.6-16.2,1.1-32.3.9-48.4,1.5-14.9.6-29.9-.4-44.9-1.4-17.9-1.2-35.7-2.7-53.5-4.9-25.4-3.2-50.3-9-74.8-16-24.1-6.9-46.9-16.7-69.3-27.9-19.5-9.8-38.5-20.6-58.9-28.5-25.3-9.8-51.3-10.6-77.6-4.7-18.6,4.2-36.7,10.7-55.5,14-19.7,3.5-38.8,2.5-57.3-5.7-6.1-2.7-11.7-6.2-16.7-10.7-5.4-4.9-5.6-7.8-1.1-13.5,2.4-3.1,5.3-5.7,8.3-8.5-4-.7-7.8-.6-11.7-.6-59.1,0-118.1,0-177.2,0-3.2,0-6.7.7-9.5-1.7Z"/>
        <path class="cls-43" d="M.1,644.2v-160.2c1.7-2.2,4.2-2.7,6.7-3.1,30.9-5.4,62-5.9,93.1-2.7,40.6,4.1,80.4,12.8,120.3,21,14.9,3,30,5.2,44.8,8.5,18.3,4.2,36.5,2.3,54.6-.5,25.8-4,51.6-8,77.6-10.5,30.3-2.9,60.7-3.8,91-2.5,27,1.1,54,2.3,81,4.6,20.6,1.7,41.2,2.7,61.6,4.7-27.2-8.6-54.7-16.5-82.6-23.1-2.1-.5-5.5,0-5.2-4,2.7-3.1,6.4-2.4,9.8-2.4,38.8,0,77.6,0,116.4,0,2.4,0,4.6-.2,6.8-1.3,2.6-.8,5,.1,7.4,1,35,12.8,71.2,20.5,108.3,23.3,21.9,1.7,43.9,1.7,66,.9,24.3-.8,48.7.3,72.7,5.2,15.1,3.1,30.2,6.3,45,10.3,13.7,3.7,27.4,5.2,41.6,5.2,357.9-.1,715.8-.1,1073.8,0,20.5,0,40.8-1.3,61.1-4.1,4.9-.7,9.7-.8,14.6-.6,37.9,1.6,71.7-10.5,103.4-30,17.8-11,34.7-23.2,51.7-35.2,5.6-3.9,11.5-6.7,18.4-3.1v152c-2.2,2-5,1.9-7.7,1.9-55.5,0-111,0-166.5,0-3.5,0-7.1.3-9.5-3.2.6-4.4,4.3-3.8,7.1-4.3,19.2-3.4,38.5-6,57.8-8.5,26.3-3.5,52.7-5.4,79.1-7.4,3.3-.2,6.6-.2,9.9,0-34.5-6.9-69.2-8.1-104.3-6.3-54.1,2.9-107.1,13.3-160.2,22.9-33.2,6-66.4,11.7-100.1,14.5-28.7,2.4-57.5,3.3-86.4,2-52-2.3-102.8-12.5-154-20.9-25.6-4.2-51.3-7-77.2-9-40.5-3-80.1,2.7-119.6,10-34.9,6.5-69.4,14.6-104.5,20.1-20,3.1-40.2,4.6-60.5,5.3-48,1.6-95.3-3.8-142.4-12.1-33-5.8-66-11.9-99.3-15.5-29.9-3.2-59.8-3.8-89.8-1.9-32.5,2.2-64.8,5.5-97.2,8.4-42.5,3.8-83.9-2.1-125.1-11.7-23.4-5.5-46.8-10.1-71-10.6-22.1-.5-43.3,4.3-64.4,10.5-26.8,7.9-52.6,18.5-78.5,28.7-37.5,14.7-76.3,23.6-116.1,28.3-14.3,1.7-28.7,2.3-43.1,3-50,2.3-99.1-5.1-148-14.2-30.5-5.7-61.2-10.2-92.2-11.6-34.1-1.5-67.6,3.9-100.7,12-21.8,5.3-43.4,11.2-65.3,16-3.3.7-6.7,2.5-10.2.5Z"/>
        <path class="cls-14" d="M.1,763.5h202.8c-3.5,3.5-7.3,7.1-10.7,11-5,5.6-4.4,8.6,1.6,13.3,6.8,5.3,14.3,9.2,22.5,12,17.4,5.9,35,5.3,52.8,1.8,18.5-3.6,36.2-10.2,54.6-13.9,25.4-5.2,50.5-4.2,74.8,5.3,22.7,8.9,43.9,20.9,65.7,31.8,36.6,18.3,75.3,29.8,115.4,37,18.7,3.4,37.5,5.5,56.4,7,15.1,1.2,30.2,1.4,45.3,2.4,18.7,1.3,37.3-.2,55.9-.6,18.5-.4,37.1-2,55.6-4,15.2-1.6,30.4-3.3,45.5-5.1,14.2-1.7,28.3-3.9,42.5-6.2,24.2-4,48.4-8.2,72.6-12.4,17.7-3.1,35.3-6.7,53-9.8,27.6-5,55.2-9.9,82.8-14.6,16.4-2.8,32.8-5.6,49.2-7.9,14.7-2,29.6-3.3,44.4-5,20.6-2.4,41.4-2.4,62.1-3.9,17.8-1.2,35.4-.2,52.9.8,38.7,2.1,76.8,8.7,114.5,17.7,44,10.5,87.3,23.1,130.4,36.8,48,15.3,96,31,145.2,42.5,24.5,5.7,49.1,10.7,74.1,13.9,24.9,3.1,49.8,5.3,74.9,4.4,41.7-1.5,82.3-9.3,121.4-24.2,25.6-9.7,51.3-19.4,78.3-24.3,15.6-2.8,31.2-5.3,47.1-6.5,15.8-1.2,31.5-3.7,47.2-5.5,17.9-2.1,35.7-4.1,53.6-6,18.6-2,37.3-4,56-5.7,12.9-1.1,25.9-1.7,38.9-2.5,20.2-1.3,40.4-1.3,60.7-1.1v94.7c-2.3,2-5.1,1.7-7.8,1.7-75,0-150.1,0-225.1,0-2.8,0-6.9,1-7.7-2.3-.9-3.5,3.2-4.9,5.9-6.2,27.5-13.5,55.5-25.8,83.2-38.7,23.3-10.8,47.3-19.3,72.5-24.1,8.7-1.7,17.4-3.3,25.8-3.9-58.6-4-116.4,4.9-173.6,18.6-44,10.5-87.2,24-130.6,36.5-30.8,8.8-62,15.5-93.7,19.9-2.9.4-5.8.3-8.8.3-76.8,0-153.6,0-230.4,0-17,0-33.6-3.9-50.3-6.5-2.5-.4-5-.9-7.5-1-10.2-.7-19.9-4-29.6-6.5-57.3-15.1-114-32.4-171.6-46.5-38.7-9.4-77.8-16.8-117.5-19.8-32.4-2.4-65-2.6-97.5.5-40,3.8-79.5,11.2-118.8,19.2-38,7.8-75.9,16-114.1,22.7-5.4.9-10.8.9-16.9,1.6,6.7-.4,12.8-1.1,19-.2,8.2,1.2,16.3-1.1,24.5-1,33.4.5,66.5-2.6,99.7-5.4,31.8-2.7,63.6-6.3,95.4-8.8,31-2.4,61.9-2.6,92.9-1.8,31.2.8,62.1,5.1,92.8,10.6,39.6,7.1,78.6,16.6,117.3,27.4,2.3.6,4.5,1.2,6.5,2.5,4.5,3.3,10.1,4.1,15,6.5,1.9.9,4.4,1.9,3.9,4.4-.5,2.1-3.1,1.9-5,2.1-2.3.2-4.7.1-7,.1-244.6,0-489.3,0-733.9,0-17.4,0-34.5-3.1-51.8-3.8-21.2-.9-42.3-2.5-63.6-1.3-17.5,1-35,2.2-52.5,2.9-17.3.7-34.6,2.2-51.9,2.3-35.5.2-69.2-7.3-101.3-22.2-24.3-11.3-49.6-19.8-76.3-23.4-33-4.5-65.7-2.3-98.3,3.5-36.2,6.5-71.1,17.6-105.7,29.6-12.9,4.5-26.4,6.7-39.2,11.7-2.6,1-5.4.7-8.1.7-29.6,0-59.3,0-88.9,0-3.1,0-6.3.5-8.9-1.8v-173Z"/>
        <path class="cls-33" d="M2339.9,445.5c-7.7-.6-14,1.9-20.3,6.5-23.3,16.8-46.5,33.9-72.7,46.2-17.8,8.4-36.2,14.5-56.1,16.4-9.6.9-19,.6-28.5.9-9.7.3-19.2,1.8-28.8,3.1-10,1.3-20.1,1.7-30.2,1.7-356.8,0-713.6,0-1070.4.2-24.3,0-47.9-2.2-71.4-8.5-27.5-7.4-55.5-11.6-84.3-12.1-15.2-.3-30.2.8-45.3.7-49.8-.5-98.5-7.4-145.6-23.9-3.3-1.1-6.2-3.3-9.9-3.2-5.4,2-9.1-2.3-13.4-3.9-9.8-3.5-18.7-9.1-28.2-13.6-11.4-5.4-22-12.2-32.8-18.5-12.2-7.1-23.9-15-36.5-21.5-1.6-.8-6.6-1.5-2.3-5.4,7.2,0,14,2.7,21.3,2.7,272-.2,544-.2,816.1-.1,5.4,0,10.9-.4,16.3.1,2.1.2,4.3.2,5.9-1.7,3.3-2.2,7.1-1.7,10.7-1.4,45.5,3.9,89.1-2.1,130-23.4,2.9-1.5,5.7-3.5,9.3-2.7,3.1,1.7,6.5,1.2,9.7,1.2,21.1,0,42.1,0,63.2.1,3.1,0,7.3-1,8.3,3.4.9,4.4-2.9,6-6.1,7.5-41,18.9-83,34.9-127.9,42.1-29.8,4.8-59.7,6.4-89.7,5.2-26.8-1-53.6-3.8-80.4-6.3-36.1-3.3-72-7.3-108.3-8-21.3-.4-42.5.3-63.6.8-29.2.8-58.3,4.1-87.2,8.5-21.7,3.3-43.3,7.7-65.2,10.5-.6,0-1.1.2-1,.2,27.8-3.7,56.4-2.8,85-3.6,13.4-.4,26.9-1.5,40.3-.8,31.1,1.6,62.2,1.5,93.4,3.9,59.6,4.6,118.2,15.5,177,25.7,36.6,6.4,73.5,9.1,110.6,7.4,20.8-.9,41.4-4.9,61.7-9.6,37.2-8.6,73.7-20.1,110.6-30,35.1-9.4,70.6-16.4,106.9-18.7,35.8-2.3,71.7-1.1,107.5-.8,24.9.3,49.8,1.2,74.7,2.2,26.6,1.1,53.3,2.2,79.9,2.9,30.9.9,61.9,1.4,92.9-.6,33.9-2.2,66.7-9.7,98.8-20.4,17.2-5.7,34.3-11.7,51.4-17.6,7.8-2.7,16.1-4.2,24.5-2.5v58.5Z"/>
        <path class="cls-3" d="M.1,936.5c29.4,0,58.9,0,88.3,0,8.3,0,16.2-.8,24.5-3,28.7-7.6,56.5-18.4,85-26.5,22.2-6.3,44.6-11.4,67.5-14.9,19.6-3,39.4-4.3,59.2-3.5,26.1,1.1,51.5,6.1,76,15.3,20.4,7.6,39.8,17.6,60.7,23.9,14.5,4.4,29.4,6.6,44.5,7.7,12.3.9,24.5,1.6,36.7.8,21.8-1.4,43.8-1.4,65.5-4.4.6,0,1.2,0,1.8,0,17.1.7,34.2-2.3,51.3-1.1,20.9,1.4,41.8,1.5,62.6,4.4,6.3.9,12.8,1.3,19.1,1.3,247.6,0,495.1,0,742.7,0h7.6c-4.6-4.1-9.2-4.8-13.3-6.5-2.5-1-5.4-1.2-6.8-4,2.1-1.5,4.1-.5,6.1,0,32.5,8.8,64.8,18.6,97.1,28.1,45.6,13.3,91.3,26.7,138.4,33.9,17.9,2.7,35.9,4.1,54,5.5,50.4,3.8,99.4-4.4,148.2-15.4,34.6-7.8,69.1-15.9,103.3-25.2,11.3-3.1,22.1-7.5,33.1-11.6-7.8-1.1-15.5-2.4-23.3-3-20.6-1.4-41.2-2.3-61.7-4.3-11.1-1-22.3-2-33.7,0-21.3,3.8-42.4,8.3-63.7,12-24.6,4.2-49.3,7.5-74.2,8.8-10.9.6-21.8,1-32.7.9-35.9-.2-71.5-3.8-106.9-10.3-19.2-3.5-38.3-7.4-57.2-11.8-2.8-.6-6.4-.2-7.6-4.1,12,1.7,23.9,3.5,35.9,5.1,5.9.8,11.9,1.8,17.9,1.8,79.1.1,158.3.2,237.4,0,15.3,0,30.3-4,45.3-7,45.7-9.1,89.9-24.2,134.7-36.6,36.8-10.2,73.8-19.5,111.6-25.3,18.2-2.8,36.4-4.9,54.8-6.1,16.2-1,32.3-.4,48.4-.8,5.4-.1,10.6,1.8,17.6.9-4.5,3.8-8.7,3.1-12.1,3.5-34.3,4.1-66.6,14.4-97.7,29.1-26.9,12.7-54,25.1-80.9,37.6-2,.9-4.5,1.4-5.6,4.8h240.3v74.8c-44.6,0-89.2,0-133.9,0-2.5,0-5.8-1.8-7.3,2.5-.6,1.7-2.2-.5-3.2-1.1-9.1-5.6-17.9-11.5-27.8-15.8-5.6-2.4-11.8-2.2-17.4-4.5-9.3-.9-18.7-.9-28,0-18,2.3-36.1,4-54.1,6.8-16.8,2.6-33.8,4.1-50.6,6.2-17.4,2.2-34.8,4.6-52.3,6.8-7.6,1-15.3,1.7-23.2,2.6.7-2.3,3-.4,3.7-2.1-1.3-2.4-3.7-1.4-5.6-1.4-101.2,0-202.4-.7-303.6.5-20.4.3-37.3-7.8-55.5-12.9-37.9-10.6-75.5-22-114.1-29.5-23.9-4.6-47.9-8.4-72.2-10.9-18.9-2-37.7-3.7-56.7-4.7-22.1-1.1-44.2-2.7-66.4-2.1-23.1.7-46.2,1.6-69.1,3.6-39.1,3.3-77.9,9.2-116.3,17.6-26.7,5.8-53.1,12.6-79.7,18.9-22.2,5.3-44.4,10.5-67.1,13.5-20.6,2.7-41.2,4.7-62.1,3.7-8.4-.4-16.8-.2-25.1,0-19.3.4-38.4-1.4-57.6-2.6-33-2.2-66.1-2-99.1-2.1-21.2,0-42.2,1.8-63.3,3.3-17.2,1.3-34.3,2.8-51.2,5.9-3.9.7-6.6-2.4-10.6-2.4-34.1.3-68.2.1-102.4.2-2.3,0-6.5-1.5-4.8,4,.2.7-1.6.4-2.4,0-7.2-3.4-15.2-3.9-22.5-7.1-7.6-3.4-15.4-6.4-23.2-9.3-30.9-11.7-62.4-21-95-26.4-20.4-3.3-41-5.4-61.6-7.1-33.4-2.8-66.9-2.5-100.3-1.9-24.4.4-48.9,1.7-73.2,3.5-27.1,2-54.4,3.3-81.2,9.2-1.3.3-2.6.8-3.9,1.1,0-13.6,0-27.3,0-40.9Z"/>
        <path class="cls-16" d="M.1,644.2c32-7.7,63.9-16,96-23,15.8-3.5,32-5.3,48.3-6.6,17.2-1.4,34.2-1.1,51.2.5,25.4,2.4,50.6,6.1,75.7,10.8,21.1,3.9,42.2,7.5,63.5,10.2,18.1,2.2,36.3,3.1,54.5,3.7,20.8.7,41.4-.6,62-2.5,36-3.2,71.3-10.1,105.4-22.2,26.3-9.3,52.3-19.7,78.6-29.2,19.9-7.1,40.2-12.8,61.3-15.4,28.4-3.6,56,1.3,83.5,7.3,24,5.2,47.9,10.9,72.3,13.5,16.5,1.8,33.2,2.1,50,.7,13.7-1.1,27.5-1.8,41.2-2.8,15.2-1.1,30.4-3.3,45.6-4.5,19-1.5,37.9-2.6,57-2.6,25.7,0,51,2.5,76.4,5.8,35.9,4.7,71.3,12.1,107,17.4,13.9,2.1,28,3.6,42,5.2,27.2,3,54.4,2.6,81.6,1.9,21.8-.6,43.6-3.2,65.1-7.4,38.7-7.6,77.3-15.6,116.2-22.4,15.9-2.8,32.1-4.5,48.4-5.4,11.5-.6,23-1.4,34.4-.6,19.5,1.3,38.9,2.7,58.4,5.3,37.2,4.9,73.9,12.8,111,18,17.4,2.4,34.9,4.4,52.4,6,21.9,2,43.9,2.7,65.8,1.9,18.5-.7,37.1-2.3,55.6-4.2,38.5-4,76.5-11.3,114.5-18.1,24.5-4.4,49.1-9,73.8-12.2,18.2-2.4,36.5-4.1,54.9-5.3,15.8-1,31.5-1.3,47.2-.7,22.2.8,44.4,2.7,66,8.5-.4,1.6-1.6,1.8-2.8,1.8-8.6-.1-17.1.6-25.6,1.2-16.6,1.1-33.1,3-49.7,4.5-19.3,1.7-38.3,5-57.5,7.5-8.4,1.1-16.9,2-25,4.6-1.7,1.9-4.1,2.1-6.4,2.5-35.5,6.5-70.7,14.3-106.1,21.2-37.1,7.3-74.4,13.7-112.1,17.3-23.8,2.3-47.7,3.9-71.7,5.1-29.6,1.5-59.1,2.5-88.7,3.8-17.1.8-34.3.6-51.4,1.6-16.3.9-32.6-1.5-48.9-3.6-23.2-2.9-46.5-5-69.8-6.7-21.6-1.6-43.2-2.1-64.8-2.3-24.7-.2-48.6,4.1-71.9,11.5-34.7,11.1-70.3,13.8-106.3,11.8-24.9-1.4-49.7-4.3-74.5-6.4-29-2.5-57.9-1.2-86.7,3.4-14.2,2.3-28.4,4.9-42.4,8.2-19.7,5.1-39.3,10.7-58.6,17.3-3.3,1.1-6.8,1.8-10.3,1.6-20.1,3.9-40.3,5.5-60.8,4.7-19.1-.8-38.2-2.8-57.1-5.5-16.1-2.4-32.2-4-48.3-6.2-21.5-3-43.1-5.1-64.9-4.6-15.5.4-30.7,3.4-46.1,5.3-15.7,1.9-31.4,4.4-47.1,6.4-15.7,2-31.4,3.9-47.2,5.7-6,.7-12,.8-18,1.1-34.2,2-68.5,2-102.7,1.2-18.8-.4-37.6-1.5-56.4-2.3-23-1-46-2.9-69-4.6-17.9-1.4-35.9-3-53.8-4.6-14.8-1.4-29.6-3.7-44.4-4.2-16.4-.6-32.7-2.5-49.2-3-22.9-.7-45.8-3.1-68.7-1.9-28.2,1.5-56.5-.2-84.6,1.2-14.8.7-29.6,0-44.3,1.1-20.1,1.5-40.3,1.7-60.4,3.5-21,1.9-42,3.6-62.8,6.9,0-12.5,0-24.9,0-37.4Z"/>
        <path class="cls-34" d="M2339.9,727.2c-5.3,0-10.5,0-15.8,0-1.9,0-4.1-1-5.1,2.2-.6,2-2.8.8-3.9-.2-4.5-4.2-5.5-4.4-10.1-.8-1.8,1.5-2.6.5-3.4-1.2-1.7-3.3-4.5-3.6-6.4-.4-1.3,2.2-2.9,1.5-4.5,1.2-1.1-.1-2.5-.6-2.7-1.9-.2-2,2.5-.6,2.9-2.4-2.7.2-5.3-1.5-7.3,2.4-1,2-4.7,2.2-7.5,2.2-33,0-65.9,0-98.9,0-3.8,0-7.5-1.9-11.5-.3-1.3.5-4.7.4-3.7-3.1.3-1.2-.2-1.4-1-1.3-2,.4-5.7.9-5.8,1.6-.6,7.9-8.1,5-10.1,4.4-5.4-1.4-9.9.7-14.3,1.9-27.1,7.3-53.9,15.4-80.9,22.9-20.3,5.6-41.1,9.4-62,12.5-21.1,3.2-42.3,4.5-63.6,5.9-30,2-60,1-89.9.8-22.4-.1-44.8-1.5-67.2-2.3-15.9-.6-31.8-1.4-47.7-2.2-22.6-1.2-45.2-3-67.9-4.5-7.5-.5-15.1-.5-22.7-1.1-18.4-1.4-36.9-1.4-55.3-2.6-23-1.5-46-3.1-69-4.8-18.5-1.4-37.1-2.9-55.6-4.5-18.1-1.6-36.1-3.8-54.2-5.7-16.5-1.7-33.1-3.1-49.7-4.8-17.3-1.8-34.5-4.5-51.9-5.4-7.9-.4-15.8-2.9-23.9-1.2-3.4.7-6.7-1.9-10.6-1.7-13.6.7-27.2-2.5-40.8-.9-9.8,1.1-19.4,1.2-29.2,0-10.4-1.3-21,.7-31.4,1.3-33.8,1.9-67.5.1-101.2.9-5.6.1-11.3-.8-16.8,1.1-2.8.9-4.7-2-7.1-2-11.3-.2-22.6-.9-33.9.3-3.2.3-6,1.2-8.9-.9-1.7-1.2-3.8-.8-5.7-.8-21.6,0-43.3-.7-64.9.3-10.4.5-20.9,2-31.2,3.1-12.3,1.3-24.5,3.2-36.7,4.8-18,2.3-36,4.9-54,6.9-12.7,1.3-25.5,1.7-38.3,2.5-25.9,1.6-51.8,1.5-77.6,1-20.5-.4-40.9-1.8-61.3-5.3-18.4-3.1-36.3-7.7-54.4-12.2-8-2-15.6-5.4-23.7-7-1.6-.3-3.4-2.4-4.7.8-.3.9-1.9.5-2.1-.8-.6-3.9-3.8-2.6-7.4-4.1,4.4,4.5,2.8,6.1-1.2,6.5-1.5.1-3.1,0-4.7,0-74.9,0-149.7,0-224.6,0-4.5,0-8.7-.9-14.1-2.2,7.9-3.6,15.4-3.5,22.5-4.6,23.9-3.5,48-6,72-8.4,17.3-1.8,34.7-3.2,52-4.8,31.3-3,62.6-2.7,93.9-1.8,23.7.6,47.3,4.4,70.8,8.3,17.7,3,35.4,5.9,53.3,8,15.7,1.8,31.4,2.7,47.1,2,23.8-1,47.4-3.6,70.9-7.6,17.3-3,34.8-4.9,52.2-7.5,48.6-7.4,97.5-4.9,146.2-4.3,30.4.4,60.8,1.2,91.1.5,41-.9,81.4-6.5,120.5-19.5.9-.3,1.7-.9,2.5-1.3,9.4-5.2,19.9-7.2,30.1-10.1,14.7-4.2,29.6-7.5,45-7.9,8.3,0,16.6,0,24.9,0,16.4,1.7,32.7,4.7,48.8,8.3,15.4,3.4,30.9,5.7,46.3,9.1,21.1,3.1,42.2,3.1,63.2.1,16.4-2.4,32-8.2,48.1-12,12.8-3,25.9-3.2,38.9-4.3,19.4,0,38.8.1,58.2-.1,10.2,0,20.3-.5,30.5.3,2.8,1,5.7,1,8.6,1,31.5,0,63,2.4,94.4,4.2,9.9.6,19.8.9,29.7,1.2,32.7.7,65.3,3.5,98,2.6,6.4-.2,12.8,1.2,19.2,1.1,56.2-.8,112.5-.8,168.3-9.2,7.8-1.6,15.5-3.1,23.3-4.7,10.8-3.4,21.4-7.3,31.8-11.7,24.9-10.7,51.3-15.6,77.9-19.8,21.7-3.4,43.7-4.7,65.5-6.9,3.7,0,7.4,0,11.1,0,3-.3,6-1.2,9.1-1.1,5.6,0,11.2.1,16.8-.1,5.3-.7,10.7-1.6,16.1-1.1,16.7.1,33.4,0,50.1,0,2.7,0,5.5-.4,7.8,1.6v101.7Z"/>
        <path class="cls-10" d="M1731.6,286.4c19.9-7.7,40.5-12.8,61.8-15.3,11.6-1.4,23.3-1.2,34.8-2.5,14.5-1.5,28.7.2,43,.6,16.4.4,32.8,1.9,49.1,4.1,13,1.8,26.2,2.4,39.3,3.8,13.4,1.4,26.9,3.1,40.3,4.5,5,.5,10.1.9,15,1,8.6.2,17.1,1.2,25.6,1.7,13.8.8,27.6,1.1,41.4.9,46.2-.7,90.8-8.9,133.7-26.6,30.4-12.5,59.8-27.1,90.1-39.8,11.3-4.7,22.8-8.7,34.2-13v156.6c-2.4,2.1-5.5,1.7-8.4,1.8-33.5,1-66.9,2-100.3,4.4-14.7,1.1-29.6.5-44.4,1.2-31.5,1.5-63,2.9-94.5,4-36.2,1.3-72.4,2.8-108.5,4.8-26.2,1.4-52.6.9-78.7,4-6.8.8-13.6-.1-20.4.3-23.9,1.4-47.8,2.3-71.7,3.2-10.7.4-21.4,1.2-32.1,1.6-30.5,1.1-61.1,1.6-91.6,4.2-8.2.7-16.4.3-24.5.2-2,0-4.9.2-5.4-2.3-.5-2.7,2.2-3.9,4.3-4.8,8.5-3.5,16.4-7.9,23.9-14.2-2.4-1.3-4.7-.9-6.8-.9-23.2,0-46.4,0-69.6,0-2.9,0-5.9.2-8.7-.5-5.1-2.7-.8-4.4.9-5.7,6.1-4.5,12.5-8.5,18.8-12.8,21.3-14.6,41.9-30.3,64.2-43.5,12.6-7.4,25.7-13.8,39.1-19.6,2-.9,4-1.6,6.2-1.6Z"/>
        <path class="cls-40" d="M1600.6,368.3c28.1,0,56.2,0,84.2,0,1.6,0,3.1,0,4.7,0,1,0,2.1.2,2.5,1.2.6,1.4-.6,2.3-1.5,2.8-8.3,4.2-15.1,10.9-24.3,13.7-2.3.7-4.7,1.6-7.1,4.4,10.9,0,21,.5,31-.2,8.9-.6,17.7-2.2,26.6-2,26.1.6,52-2.4,78.1-2.8,18.4-.3,36.9-1.1,55.3-2.2,18.2-1.2,36.5-1.1,54.7-2.4,17.7-1.2,35.3-1.1,52.9-2.3,18.6-1.3,37.3-1.2,55.9-2.4,17.3-1.1,34.5-1.2,51.8-2.3,19.2-1.2,38.5-1,57.6-2.4,17.3-1.3,34.6-.9,51.8-2.2,18.4-1.5,36.9-1.1,55.3-2.4,17.7-1.2,35.4-1.1,52.9-2.4,19-1.4,38-2,57-2v24.5c-26.4,2-49.9,13.9-74.6,21.7-23.7,7.5-47.7,13.9-72.2,17.7-15.9,2.4-31.9,4.1-48.1,3.9-22.8-.2-45.6.5-68.4-.2-24.3-.7-48.5-1.6-72.8-2.5-9.7-.4-19.4-.1-29.1-.9-16.3-1.3-32.7-.3-49-1.3-35.8-2.1-71.7-1.5-107.5-.6-28.4.7-56.5,5.7-84.4,11.9-37.7,8.4-74.4,20.3-111.7,30.3-23.2,6.2-46.7,11-70.4,14.8-23,3.7-46.2,3-69.3,2-25.9-1.1-51.5-5.3-77.1-9.8-28.9-5.1-57.8-10.6-87-14.6-24.7-3.4-49.5-6.3-74.4-8.3-22.7-1.8-45.3-3.4-68-3.4-16.1,0-32.3-2-48.4-1-20,1.3-40.1,0-60.1,1.4-15.3,1.1-30.7-.8-45.9,2.7,0-.6-.1-1.2-.2-1.8,10.4-2,20.8-4.1,31.2-5.9,18.7-3.2,37.4-6.4,56.1-9,12.8-1.8,25.8-2.7,38.7-3.9,19.7-1.8,39.6-1.7,59.3-2.7,23-1.2,45.7.7,68.6,1.4,15.5.4,30.9,2.3,46.3,3.7,18.3,1.6,36.5,3.9,54.8,5.6,12,1.1,24,1.8,36,2.4,13.2.7,26.4,1.3,39.6,1.3,55.8,0,109.4-11.1,160.8-32.7,11.6-4.9,23.2-9.9,34.8-15.1,2.3-1,6-1.6,5.1-5.3-.8-3.6-4.3-1.9-6.5-1.9-22.4-.1-44.8,0-67.3,0-2.4,0-5.2.7-6.7-2.2.6-2.3,2.7-3.2,4.5-4.3,6.1-3.8,12.4-7.3,18.4-11.2,1.6-1,3.2-2.5,5.3-1.1Z"/>
        <path class="cls-31" d="M561.6,412.8c13.7,6.4,26.2,15,39.3,22.5,13.4,7.7,26.7,15.6,40.6,22.6,10.5,5.3,21.5,9.5,32,14.9.8.4,1.8.5,2.8.8-1.6,3.3-4.6,2.3-7.2,2.3-39.6,0-79.1,0-118.7,0-2.5,0-5.1-.4-7.4,1.2-2.3,2-4.8,1.1-7.2.6-28-6-56.2-11.2-84.8-13.6-31.6-2.6-63.3-4.3-95.1-1.8-9.1.7-18.3.4-27.4,1-35,2.2-70.1,2.6-105.1,1.2-39-1.5-77.5-8.1-115.9-14.3-26.5-4.3-53.1-8.1-79.9-10.8-7-.7-13.9-1.4-21-1.5-2.3,0-4.7,0-6.6-1.8v-119.2c1.8-1.6,3.9-1.3,6.1-1,34.9,4.2,68.3,13.7,100.5,27.8,31.1,13.3,61.7,28.3,94,38.5,21.2,6.7,43,10.9,64.9,14.4,10.4,1.7,20.9.6,31.1,3.4,6.8,1,13.6,1.1,20.4-.1,2.4-.5,4.7-.5,7.1,0,7.2,1.3,14.5,1.1,21.7.1,3.2-.5,6.3-1.5,9.6-1.2,4,.8,8,1.2,12-.3,9.7-.5,19.1-3.1,28.8-3,6.1,0,12-.8,17.9-1.7,26.5-4.4,53-4.5,79.7-2.8,8,.5,15.8,1.9,23.7,3.3,14,2.5,26.6,8.5,39.3,14.4,1.9.9,3.9,1.9,4.7,4.1Z"/>
        <path class="cls-32" d="M2281.8,625.4c-5.2.4-10.4.9-15.6,1.3-5.8-.9-11.7-.9-17.5,0-2.7.4-5.5.8-8.2,1.2-3.9-.9-7.8-.9-11.6,0-12.9,1.2-25.8,2.2-38.7,3.6-14.9,1.6-29.7,4.1-44.5,6.3-32,4.6-61.1,18.3-91.2,28.8-1.1-.9-2.3-1.4-3.8-1.3-7.6.3-15.2-.3-22.8-.3-286.6,0-573.3,0-859.9,0-3.1,0-6.3.2-9.3-.2-2-.2-4.5.1-5-2.9,12.3-4.2,25.1-5.9,37.8-8.2,17.9-3.2,36.1-4.4,54.2-5.8,13-.9,26,1.2,39,1.4,10,.2,20,2.4,30,3.1,23.8,1.7,47.5,3.7,71.5,3.8,24,.1,47-3.8,69.9-10,17-4.6,33.8-9.8,51.4-12.1,5.4-.7,10.8-1.5,16.2-1.5,23.3,0,46.7-.9,70,1.2,19.8,1.8,39.7,3.2,59.5,5.4,17.9,2,35.7,4.4,53.7,5.2,18.3.8,36.5-.4,54.7-.6,20.9-.3,41.9-1.4,62.9-2.1,21.1-.7,42.2-2,63.3-3.5,21.2-1.6,42.4-3.3,63.5-5.9,23.6-2.8,46.9-7.1,70.4-11.2,43.1-7.5,85.5-18,128.6-25.1,2.1-.3,4.1-1.2,6.3-.8,2.4,2.7,5.7,2.2,8.7,2.2,58.3,0,116.6,0,174.8,0v26.9c-5.6,1.3-11.2.4-16.8.5-13.8.4-27.6-.5-41.3.5Z"/>
        <path class="cls-50" d="M.1,436.2c17.7,0,35.1,2.4,52.7,4.4,22.3,2.5,44.3,6.5,66.5,9.7,18.1,2.6,36.2,5.8,54.4,7.9,14.2,1.6,28.4,3.1,42.8,4,29,1.8,58,1.5,87,.6,33.4-1.1,66.7-3.8,100.1-3.1,20.5.4,41,1.9,61.4,4.3,25.4,3,50.4,7.4,75.3,13,.9.2,1.9.1,2.9.2,14.7,3.9,29.5,7.6,44.2,11.7,16.6,4.6,33.2,9.2,49.2,15.6-10,1.6-19.8-.2-29.6-.9-7.3-.5-14.7-.8-22-1.6-13.8-1.6-27.9-1.6-41.8-2.7-33.6-2.6-67.1-4.2-100.8-3.3-19.7.6-39.4,1.9-59.1,4.3-25.1,3.1-50.1,7-75.2,10.6-16.9,2.5-33.5.5-50.2-2.5-38-6.9-75.7-15.6-113.8-22.1-32.4-5.6-64.9-9.2-97.8-7.8-15.4.6-30.9,2.3-46,5.7v-47.9Z"/>
        <path class="cls-4" d="M106.6,344.9c-17.9-6.7-35.6-14-54.2-18.7-17.2-4.3-34.6-7.5-52.3-9.3v-33.9c4.9,0,9.5,1.6,14,3.4,2.8,0,5.4.8,8,1.7,26.8,9.1,52.6,20.6,78.3,32.2,13.8,6.3,27.9,11.9,41.7,18.3,2,.9,4.7,1.2,4.7,4.4-1.5,2.7-4.2,2.5-6.6,2.5-11.2,0-22.4.7-33.6-.7Z"/>
        <path class="cls-35" d="M2281.8,625.4c1.9-1.6,4.1-.9,6.2-.9,17.3,0,34.7,0,52,0v1.2c-19.4,0-38.8-.1-58.1-.2Z"/>
        <path class="cls-27" d="M146.3,341.5c-14.5-4.9-28.3-11.5-42.2-17.8-28.6-12.9-57.3-25.6-87-35.7-1.1-.4-2.3-.4-3-1.6,2-1.9,4.4-1.1,6.7-1.1,54.2,0,108.5,0,162.7,0,2.1,0,4.1,0,7,0-2.6-3.9-7.3-3.6-9.2-6.9,2.7-1.9,5.3-.5,7.8.3,19.3,6,38.6,12.2,58.5,16.4,20.3,4.3,40.7,7,61.3,8.5,25.9,1.8,51.8,3,77.7,2,28.2-1.1,56.4-2,84.6-2.9,29.2-1,58.4-.6,87.7.4,60.7,2,119.7,15.7,179.1,26.2,44.6,8,89.4,13.3,134.9,11.5,24.4-1,48.5-4.4,72.4-9,38.7-7.3,77.3-14.9,116.5-19.5,21.1-2.5,42.2-4.2,63.5-3,1.1,0,2.6.8,3.2,0-7.4-.3-15.1-.4-22.8-1.3-27.7-3.3-55.5-4.9-83.2-7-51-3.7-102.1-2.2-153.1-1.8-33.7.3-67.4,2.6-101,1.9-32.6-.7-64.8-5.4-96.7-12.4-1.9-.4-4.5-.3-4.8-3.3,2.7-2.4,6.3-1.2,8.8-.7,5.7,1,11.3.7,16.9.7,343.7,0,687.4,0,1031.1,0,2.6,0,5.5-.9,7.9,1-5.9,3.8-12.5,5.9-18.8,8.9-28,13.2-53,31.2-78.2,48.9-10.4,7.3-21,14.5-31.5,21.7-.9.6-1.7,1.5-2.5,2.3-9.4,5.5-18.8,11-28.2,16.5-8.1,3.6-16.2,7.4-24.4,10.9-17.5,7.5-35.7,12.2-54.6,15-17.4,2.6-34.8,1.8-52.2,2.1-5.8,0-11.5-1.8-17.3-1.1-2.5,2.1-5.5,1.8-8.4,1.4-17.4-2.2-34.6-5.4-52-7.8-27.7-3.8-55.4-8.6-83.4-10.8-7.5-.6-15.2-.6-22.6-2.6-5.8-1.6-11.7-.6-17.5-.7-5,0-10,.3-14.9-.5-9.4-1.4-18.9-1.3-28.3,0-4.6.7-9.3.5-13.9.5-7,0-14.1-.8-21.1.7-3.9.7-7.8.5-11.7.5-5.6,0-11.2-.8-16.7.7-17.6,2.1-35.3,2.6-52.9,4-17.2,1.4-34.5,2.8-51.7,3.9-8.9.6-17.7,2.4-26.7,1.8-4-.1-8-.6-12,.5-1.3.3-2.6.5-4,.5-4.2.1-8.5-.5-12.7.7-2,.4-4,.5-6,.5-4.3,0-8.6-.6-12.8.7-2,.4-4,.5-6.1.5-5.4.1-10.8-.7-16.2.7-2.1.4-4.2.6-6.3.5-8.2,0-16.4-.3-24.6.2-4.3,1.1-8.6,1.1-12.9.9-12.2-.1-24.4,0-36.6,0-4.7.1-9.4.3-14.1-.4-6.2-1.6-12.5-.6-18.7-.8-40.1-.7-79.4-7.6-118.5-16-21.2-4.5-42.3-8.9-63.4-14-33.9-8.2-68-15.4-102.4-21.6-16.1-2.9-32.4-4.8-48.7-5.7-5.2-.3-10.4-1-15.7-1.2-36.1-1.2-71.5,3.8-106.9,9.9-25.4,4.3-50.7,8.9-76.4,10.8-24.8,1.8-49.5-.4-73.8-5.5-20.7-4.3-40.8-10.4-60.3-18.4-2.5-1-5.1-2.1-6.8-4.3Z"/>
        <path class="cls-8" d="M724.3,156.7c-25.1-4.7-50.6-5.6-76-4.4-20.3.9-40.3,5-60.1,9.5-34.4,7.7-68.1,18.4-102.8,24.9-18.5,3.4-37,5.8-55.7,7.8-24.1,2.6-48.2,2.1-72.3,2.1-21.5,0-42.9-2.1-64.4-4.4-18.3-2-36.5-4.2-54.6-7.2-21.2-3.5-42.3-7.2-63.5-10.9-27.8-4.9-55.6-10-83.4-14.8-18.9-3.3-37.8-6.3-56.7-9.1-8.9-1.3-18-2-27-3.4,4.8-2.6,10.1-2.6,15.1-3.7,29.9-6.3,59.8-12.7,89.9-18.3,18.8-3.5,37.7-6.5,56.9-7.9,12.7-.9,25.3-1.1,37.9-.7,15.4.5,30.9,2.2,46.2,4.2,12.9,1.7,25.8,2.7,38.7,3.8,11.4,1,22.8,2,34.2,2.3,36.1,1,70.4-6.9,103.6-20.8,21.3-8.9,42.6-17.9,64.2-26,15-5.7,30.6-10,46.6-12.2,7.1-1,14.4-.5,21.5-.5,19.3,0,38.6.6,57.9-.1,33.9-1.3,66.9,4.4,99.6,12,39.3,9.1,78.3,19,117.5,28.4,23.9,5.7,48.1,10,72.5,13.3,19,2.5,38.3,4.5,57.4,3.5,21.7-1.1,43.4-1,65-4.2,13.6-2,27.4-2.4,41-3.8,15.8-1.7,31.5-3.8,47.2-5.6,9.6-1.1,19.3-2.3,28.9-2.4,16.1-.1,32.2-2.4,48.4-1.3,23.4,1.6,46.6,4.1,69.7,8.5,38.3,7.4,75.6,18.9,112.9,30.2,7,2.1,13.9,4.5,20.9,6.8-2.5,2.9-5.8,2.9-9.1,2.5-3.9-.5-7.8-.6-11.7-.6-214.7,0-429.3,0-644,0-4.2,0-9.1-1.6-12.5,2.6Z"/>
        <path class="cls-1" d="M724.3,156.7c-1.4-2.4-1-4.1,2-4.5,1.5-.2,3.1,0,4.7,0,218.2,0,436.4,0,654.6,0,5.4,0,10.7,2.1,16.1,0,39.4,10.9,78.9,21.1,119.1,28.8,21.3,4.1,42.7,7.2,64.2,9.9,20.6,2.5,41.2,4.3,61.8,5.9,16.1,1.3,32.2,1.8,48.3,2.3,11.9.4,23.8,1.8,35.5.7,10.1-.9,20.1-.4,30.2-.6-11.7,4.1-23.9,5.7-36,7.9-20.9,3.8-42.1,5.9-63.3,8-13.7,1.4-27.5,2-41.2,2.9-19.6,1.2-39.2,1.4-58.8,1.8-20.9.4-42-.5-62.9-2.3-23.7-2-47.4-4.2-71-7.7-27.7-4.2-55.3-9-82.9-13.9-21.3-3.8-42.7-7.2-64.2-9.9-20.8-2.6-41.6-3.8-62.5-4.9-19.3-1-38.2,1.4-57.3,2.6-22.2,1.4-44.2,4.8-66.3,7.3-16.7,1.8-33.3,5-50,6.6-14.8,1.4-29.6,3.2-44.5,4-9.9.5-19.8.7-29.7,1-36.9,1.1-73-4.6-108.7-13.4-29.3-7.3-58.5-14.9-87.9-22.2-16.3-4-32.8-7.3-49.4-10.1Z"/>
        <path class="cls-42" d="M666.9,285.3c10.9,3.5,22.1,5.2,33.3,7,13.7,2.2,27.6,4.1,41.4,5.6,9.1,1,18.2,1.3,27.3,1.5,15.6.2,31.2.7,46.8-.1,55.7-2.9,111.4-2.5,167-2,24.2.2,48.4,2.3,72.6,4.2,14.9,1.2,29.7,2.5,44.6,3.9,10.4.9,20.7,2.5,31.1,4.1-7.8.5-15.7,1.3-23.5,1.4-26.6.4-52.9,4.1-79.1,8.1-38.1,5.7-75.7,14.2-113.8,19.9-29.1,4.4-58.6,5-87.9,3.5-35.6-1.8-70.7-7.7-105.7-14.6-28.7-5.6-57.4-10.7-86.3-15.3-18.1-2.9-36.4-4.9-54.8-6.4-35.8-2.9-71.6-2.3-107.4-1.8-23.5.4-47,1.3-70.5,2.4-17.7.9-35.4,1-53.1.7-52.2-.8-103.6-7.2-153.2-24.8-4.7-1.7-9.7-2.8-14.5-4.2-31.5-11.9-62.7-24.7-93.5-38.8,12.7,2.9,25.4,5.6,38,8.6,32.4,7.8,64.6,16.4,97.3,22.5,13.7,2.6,27.5,4.2,41.4,5.4,14.2,1.2,28.4,1.1,42.6.8,23.7-.5,47-4.4,70.3-8.4,21.5-3.7,43-7.7,64.7-10.4,13.1-1.6,26.3-3.1,39.4-3,34,.1,67.6,4.7,100.8,11.9,27,5.9,54,12,81.1,17.9,1.1.2,2.3.2,3.5.2Z"/>
        <path class="cls-5" d="M1512.8,121.4c2.7-1.4,5.4-2,8.4-2,18.5,0,36.8,1.5,55,4.4,23.5,3.8,46.6,9.6,69.8,15.1,25,5.9,50.2,11.3,75.8,14.1,20.7,2.3,41.7,2.7,62.4,1,40.4-3.3,80-11.6,119.3-21.1,27.8-6.8,55.5-14.5,83.7-19.7,18.4-3.4,36.9-6.6,55.7-8,13.7-1,27.5-2.5,41.3-2.2,40.3.8,79.3,8.7,116.8,23.4,13.7,5.4,27.5,10.8,41.2,16.2,2,.8,4,1.4,6.4,3.8-13.3-3.7-25.7-6.3-38.1-9-33.1-7.3-66.6-9.4-100.2-7.4-28.2,1.7-56,7.3-83.5,14-31.2,7.7-62.1,16.8-93.8,22.3-18.1,3.2-36.3,5.7-54.5,8-33.5,4.2-67.2,3.9-100.8,3.1-24-.5-47.8-3.7-71.6-7.5-40.5-6.5-79.7-18.2-118.6-30.9-18.4-6-36.7-12.5-56-15.7-6.3-1-12.5-2.3-18.9-2.2Z"/>
        <path class="cls-13" d="M1747.7,114.4h-31.1c0-.2,0-.4,0-.6h31.1c0,.2,0,.4,0,.6Z"/>
        <path class="cls-2" d="M2122.3,992.5c9.3-1.9,18.7-1.8,28,0-9.3,0-18.7,0-28,0Z"/>
        <path class="cls-3" d="M509.3,1019.7h15.9v.6h-15.8v-.6Z"/>
        <path class="cls-3" d="M488,1020c5-.7,10-.8,15,0-5,.7-10,.8-15,0Z"/>
        <path class="cls-3" d="M540.4,1019.3h-8.9c2.9-1.5,5.9-.9,8.9,0Z"/>
        <path class="cls-15" d="M1153.6,661.8c2.4,2.1,5.2,1.1,7.8,1.1,292.1,0,584.1,0,876.2,0,4.2,0,8.4,1.1,12.7.3,1.8-.3,3.8.8,4.1,3.2-7.4,1.6-14.8,3.1-22.2,4.7-5.4-2.3-11.1-1.5-16.7-1.6-119.5,0-239,0-358.4,0-8.3,0-16.6-.6-25,.8-6.5,1-13.2.2-19.8-.4-10.1,0-20.3,0-30.4,0-9-1.3-18.1-.5-27.2-.5-10.8,0-21.6-.8-32.4.5-21.5.7-42.4,4.4-62.9,11.3-6.9,2.4-14.3,3.4-21.4,5-2.5-1.2-5.1-1.6-7.9-1.6-16.8-.1-33.5,0-50.3,0-2.6,0-5,.7-7.3,1.7-14.5-2.9-29.1-5.9-43.6-8.9-16.6-3.4-33.2-6.6-50.1-8.7-9-.9-17.9-1-26.9,0-18.1.8-35.3,5.7-52.7,10.3-7.1,1.9-13.5,5.9-21,6.1-2.3-2-5-2.5-8.1-2.4-25.9,0-51.8,0-77.7,0-2.2,0-4.7.9-6.6-1.1,22.5-7.1,44.7-15,67.9-19.8Z"/>
        <path class="cls-2" d="M1592.3,929.5c13,4.7,26.6,6.3,40,9.3,19.3,4.3,38.7,7.7,58.2,10.2,13.8,1.8,27.7,2.5,41.6,3.8,14.5,1.4,29.1,1.4,43.7,1.1,25.2-.6,50.2-3,75.1-6.6,25.9-3.7,51.3-9.7,76.9-14.2,17.3-3.1,34.6-2.1,51.9.5,1.7.3,3.5.4,5.2.5,20.7.7,41.4,1.8,62,4.5,3.7.5,7.6,0,13,0-3.9,3.8-7.1,4.9-10.3,6.1-22,8.2-44.7,14.2-67.6,19.7-33.7,8-67.3,16.7-101.4,22.9-15.4,2.8-30.9,5.2-46.5,6.5-16.1,1.4-32.1,2.7-48.2,2.1-21.5-.9-42.8-2.5-64.2-5.5-45.3-6.3-89.1-18.5-132.8-31.2-38.7-11.2-77.4-22.3-116.1-33.4-34-9.3-68.2-18.1-102.8-25-21.2-4.2-42.7-7.3-64.1-10.3-37.9-5.3-76-5-114.1-4.1-18.5.4-37.1,1.8-55.6,4.2-13.6,1.7-27.4,2.4-41.1,3.7-19.5,1.8-38.9,3.9-58.3,5.7-6,.5-12,.9-18,1.1-14.6.4-29.1,2.1-43.7,1.5-7.8-.3-15.5.2-23.3.9-9.1.9-18.1-2-27.4-1.3,6.6-2.8,13.8-3,20.7-4.3,42.1-7.6,83.9-16.8,125.8-25.3,24.2-4.9,48.7-9,73.2-12.5,31.8-4.5,63.7-6.2,95.8-5.6,25.6.5,51,3,76.3,6.7,35.9,5.3,71.2,13.3,106.2,22.6,36.6,9.7,72.9,20.3,109.4,30.2,20,5.5,39.9,11.5,60.3,15.3Z"/>
        <path class="cls-20" d="M889.2,406.9c3.9-.3,8,.8,11.8-1.1,8.6.8,17.1.9,25.7,0,1.9,0,3.9,0,5.8,0,5.4-1.6,11,.5,16.4-1.2,1.9,0,3.9,0,5.8,0,4.2-1.6,8.7.4,12.9-1.2,1.9,0,3.9,0,5.8,0,4.2-1.6,8.7.4,12.9-1.2,1.2,0,2.3,0,3.5,0,3.8-1.6,7.9.5,11.7-1.2,19.8-.9,39.6-2.8,59.3-4.6,12.3-1.1,24.7-1.7,37-2.5,11.9-.8,23.9-1.6,35.8-2.3,5.4-1.6,11,.4,16.4-1.1,3.9,0,7.8,0,11.7,0,7-1.6,14.1.5,21.1-1.1,4.7,0,9.4,0,14.1,0,9.4-.9,18.8-.9,28.1,0,5.1,0,10.2,0,15.2,0,5.8,1.6,11.7-.5,17.5,1.1,17,2.1,34.2,3.5,51.2,5.4,18,2,35.7,5.3,53.6,7.3,13.5,1.5,27,4.5,40.5,6.3,6.9,1,13.7,2.2,20.7,2-.3,3.6-3,3.5-5.6,3.5-5,0-10.1,0-15.1,0-272.7,0-545.3,0-818,0-6.2,0-12.4.4-18.2-2.6-1.7-.9-3.6-1.6-5.3.3-18.9-9.7-38.6-17.6-59.9-19.6-20.1-2-40.2-1.7-60.4-.7-11.3.6-22.6,2-33.7,3.7-9.4,1.5-19.3-1-28.3,3.4-3.6,1.8-7.9-1.8-11.9.4-3.9.9-7.7.9-11.6,0-3.2,0-6.2,1.7-9.4,1.1-7.4.9-14.8.9-22.2,0-2.4,0-4.7,0-7.1,0-7,.9-14,.9-21,0-7.8-1.3-15.9-.3-23.6-1.6-6.5-1.1-13.1-2-19.5-3.3-20.1-4-40.2-8.1-59.6-14.9-21.4-7.5-42.3-16.4-63-25.7-7.9-3.6-15.8-7.2-23.8-10.7,2.6-2.1,5.6-1,8.4-1,8.7-.2,17.5,0,26.2,0,1.9,0,4.5,1,5.1-2.2,20.8,8.1,41.8,15.7,63.8,20.1,12.9,2.6,25.8,4.7,39,5.8,10.3.9,20.6.9,30.9.8,15.5-.1,30.8-2.8,46.1-5.1,21.2-3.1,42.4-6.5,63.6-10.1,28-4.8,56.3-6.8,84.6-5.6,14.7.6,29.3,2.1,43.9,4.2,34.3,4.9,68.1,12.4,101.8,20,22.5,5.1,44.8,10.6,67.3,15.4,25.5,5.4,51,10.8,76.9,14.2,18.2,2.4,36.5,4.3,54.9,4.6,6.2,1.7,12.6-.5,18.7,1.2,4.7,0,9.3,0,14,0,3.1,2.2,6.4.6,9.6.6,8,0,15.9,0,23.9,0,1.3,0,2.7.4,3.9-.6Z"/>
        <path class="cls-14" d="M168.6,935.9c16.3-.4,32.9-.1,49.5,0h-49.5Z"/>
        <path class="cls-15" d="M1612.2,670c3.9-2.7,7.8.4,11.8.1,96.2-5.5,192.6-1.2,288.9-2.4,36.2-.5,72.4,0,108.6-.1,4.1,0,7.7.6,10.7,3.5-10.4,1.3-20.8,2.2-31,4.1-5.8,1-11.6,1-17.3,1.5-16.2,1.6-32.5,2.6-48.8,2.5-22.8-.1-45.5,2.5-68.2,1.2-22.2-1.3-44.4-.3-66.5-1.3-19.4-.8-38.8-1.6-58.2-2.4-15.9-.6-31.8-1.4-47.6-2.3-15.3-.9-30.6-1.3-45.9-2.5-10.1-.8-20.2-.5-30.3-.9-2.2,0-4.3,0-6.2-1.2Z"/>
        <path class="cls-45" d="M1372.4,686.3c2.5-2.8,5.6-3.6,9.4-3.5,15.6.2,31.1.2,46.7,0,3.7,0,6.9.8,9.4,3.6-12.9,1.3-25.8,3.1-38.9,2.4-8.9-.5-17.7-1.6-26.6-2.4Z"/>
        <path class="cls-45" d="M1522.2,669.9c1.1-1.4,2.8-1.1,4.3-1.1,17,0,34,0,51.1,0,1.5,0,3.1-.3,4.3,1.1-19.9,0-39.7,0-59.6,0Z"/>
        <path class="cls-45" d="M1251.9,668.8c9-1.9,17.9-1.9,26.9,0-9,0-17.9,0-26.9,0Z"/>
        <path class="cls-45" d="M427.4,709.9h19.4c0,.2,0,.4,0,.6h-19.4c0-.2,0-.4,0-.6Z"/>
        <path class="cls-45" d="M2238,718.8h-18.5c0-.2,0-.4,0-.6h18.5c0,.2,0,.4,0,.6Z"/>
        <path class="cls-15" d="M2248.7,626.7c5.8-1.8,11.7-1.8,17.5,0-5.8,0-11.7,0-17.5,0Z"/>
        <path class="cls-45" d="M2211.9,718.8h-13.5c0-.2,0-.4,0-.6h14l-.5.6Z"/>
        <path class="cls-45" d="M464.3,711.9h-10c0-.2,0-.4,0-.6h10.1c0,.2,0,.4,0,.6Z"/>
        <path class="cls-15" d="M2228.8,627.8c3.9-1.8,7.8-1.8,11.6,0-3.9,0-7.8,0-11.6,0Z"/>
        <path class="cls-43" d="M324.2,401.1c7.4,0,14.8,0,22.2,0-7.4,1.9-14.8,1.9-22.2,0Z"/>
        <path class="cls-43" d="M296.1,401.1c7,0,14,0,21,0-7,1.9-14,1.9-21,0Z"/>
        <path class="cls-43" d="M355.8,399.9c3.9,0,7.7,0,11.6,0-3.9,1.8-7.7,1.8-11.6,0Z"/>
        <path class="cls-33" d="M889.2,406.9c-.8,1.9-2.2,1.3-3.8,1.4-9.4.2-18.9-1.3-28.2.8-2.1.5-4.3.3-5.4-2.2,12.5,0,24.9,0,37.4,0Z"/>
        <path class="cls-33" d="M1225,389.4c-9.4,0-18.8,0-28.1,0,9.4-1.9,18.8-1.9,28.1,0Z"/>
        <path class="cls-33" d="M926.6,405.8c-8.6,2-17.1,1.9-25.7,0,8.6,0,17.1,0,25.7,0Z"/>
        <path class="cls-33" d="M1182.8,389.4c-6.9,2.6-14.1.5-21.1,1.1,6.9-2.5,14.1-.6,21.1-1.1Z"/>
        <path class="cls-33" d="M837.8,406.9c-6.2-.6-12.6,1.3-18.7-1.2,6.2.5,12.6-1.3,18.7,1.2Z"/>
        <path class="cls-33" d="M1257.7,390.6c-5.8-.6-11.8,1.4-17.5-1.1,5.8.6,11.8-1.4,17.5,1.1Z"/>
        <path class="cls-33" d="M1150.1,390.6c-5.3,2.4-10.9.6-16.4,1.1,5.3-2.4,10.9-.6,16.4-1.1Z"/>
        <path class="cls-33" d="M948.9,404.6c-5.3,2.5-10.9.6-16.4,1.2,5.3-2.4,10.9-.7,16.4-1.2Z"/>
        <path class="cls-33" d="M967.6,403.4c-4.1,2.5-8.6.6-12.9,1.2,4.1-2.5,8.6-.6,12.9-1.2Z"/>
        <path class="cls-33" d="M986.3,402.3c-4.1,2.5-8.6.6-12.9,1.2,4.1-2.5,8.6-.6,12.9-1.2Z"/>
        <path class="cls-33" d="M1001.5,401.1c-3.7,2.4-7.8.7-11.7,1.2,3.7-2.4,7.8-.7,11.7-1.2Z"/>
      </g>
      <g>
        <path class="cls-53" d="M0,1305.6v-461.5c4.3-1.7,8.1-.4,11.6,2.1,2.8,2,5.2,4.3,8,6.2,4.2,3,5.9,2.6,8.7-1.6.7-1.1,1.4-2.2,2.1-3.3,2.6-4.4,6.5-5.7,11.1-4.1,8.6,3.1,16.5,2.3,23.7-3.5.9-.7,2.1-1.5,3.1-1.1,5.3,1.7,9.8-1.2,14.6-2.1,7.1-1.2,14.6-.3,21.7,1.6,2.9.8,4.7,3,4.9,6.2,0,.9,0,1.9.5,2.8,1.2,2.8,6.1,5.5,8.4,4.3,3.5-1.9,3.7-4.8,2.1-8.2-1.1-2.2-2-4.5-2-7,0-1.5,0-3.2,1.8-3.8,1.8-.6,2.8.7,3.6,2,.7,1.1,1.2,2.4,1.8,3.5,1.7,2.8,3.8,4.7,7.4,3.3,2-.7,4.1-.8,6,.3,5.8,3.2,12.2,4.9,18.4,7.1,10.3,3.8,20.9,3.5,30.2-2.7,7.7-5.1,14.8-5.9,22.5-1,2.5,1.5,5.2,2.2,8.1,1.9,7.1-.9,14-2.9,20.9-4.5,3.3-.8,4.6-3.1,4.7-6.7,0-7.1,2.9-10.6,9.7-11.7,6.7-1,13.4-2.3,20.1-2.9,6.4-.6,12.8,0,18.6,3.3,3.7,2.1,7.8,2.3,12,1.6,9.9-1.7,19.8-2.8,29.6.3,1.1.3,2.3.4,3.2,1,9.6,6,19.4,6.4,29.5,1.1,1.6-.9,3.6-1.4,5.5-1.3,10.1.4,19.7-2.6,29.3-5.2,3.3-.9,6.7-.9,10.1-.9,10.5,0,21.1.7,31.5-1.9,2.6-.6,5.3-.5,7.9.1,13.5,3,26.9.5,40.4-.2,6.1-.3,11.7-2.7,17-5.7,2.3-1.3,4.8-2.6,7.5-1.8,10.7,3.2,22.7,1.7,32.5,8.4,1.6,1.1,3.6.9,5.5.5,1.7-.4,3.3-.8,4.9-1.5,11.7-5,23.8-6.8,36.4-5.9,1.7.1,3.4.2,5.1-.2,9.4-2.2,18,.3,26.1,4.7,5.5,3,11,3.8,16.8,1.6,5.1-1.9,9.9-1.5,14.8.6,8.6,3.7,17.2,3.2,25.7-.5,12.8-5.6,20.9-4,30.2,6.2,2.9,3.2,6.3,5.2,10.6,5.9,10.3,1.7,20.2,4.4,29,10.4,3,2,6.7,2.4,10.2,2.9,5.8.8,11.6,1.4,17.2,2.9,7.2,1.9,13.8,0,20.2-3.3,6.1-3.1,12.4-5.4,19.1-6.7,4.3-.8,7.6-2.8,9.5-7,2.1-4.4,6.3-6.9,10.7-5.5,9.1,2.8,18.5,2.8,27.7,3.8,2.7.3,4.9,1.4,6.7,3.7,7.7,10.2,18.4,13.6,30.7,12.8,7.9-.5,15.7-2.1,23.4-3.5,3.4-.6,6.4-.3,8.7,2.6,1,1.2,2.2,2.1,3.8,2.2,1.8,0,3.4-.3,4.3-2,.8-1.6,0-2.7-1.2-4-4.6-5.1-4.2-6.6,2.6-8.2,4.5-1.1,9-2.7,13.9-1.7,3.4.8,5.8-1.4,7.4-4.1,9.1-15.1,23.3-21.6,39.9-24.5,2.2-.4,4.5-.3,6.7-.1,13.5,1.4,27.1,2,40.5-.7,8.3-1.7,16.5-1.8,24.6-.5,7.4,1.2,14.7.7,21.9-.6,6-1,11.7-.7,17.2,1.6,6.9,2.9,13.4,2,19.4-1.7,8.2-5.1,15.8-4.9,23.6.8,3.9,2.9,8.2,3.4,12.7,1,3.2-1.7,6.7-2.2,10.3-2.6,7.5-.9,15-1.9,22-4.9,3-1.3,6.2-1.4,9.4-.6,4.2,1.1,8.6,1.5,12.7,2.7,8.8,2.7,17.2,1.4,25.2-2.4,5.4-2.6,10.7-2.8,16.5-1.5,12,2.7,24,3.7,36.4,1.6,7.6-1.3,15.8-2.1,23-.8,9,1.7,17,2.2,25.4-1.6,2.3-1,5.3,0,7.7,1.2,5.2,2.7,10,1.7,14.3-1.5,4.7-3.4,9.6-5,15.3-3.4,2.2.6,4.5.2,6.7-.4,12.9-3.6,25.7-.9,38.5.9,12.3,1.7,24,6.5,37.1,5.3,9-.9,18.8-.2,27.3,5,7,4.3,14.5,2.8,21.2-.2,8.2-3.6,14.9-1.5,20.7,3.9,3.9,3.7,8.2,4.9,13.2,5.3,2.6.2,5-.3,6.7-2.3,5-6.1,11.6-5.5,18.2-4.4,3.4.6,6.6.9,9.9-.4,6.6-2.7,12.1,1.6,17.8,3.3,8.4,2.4,16.6,3.7,25.4,1.8,6.4-1.4,13.1-1.7,19.4,1.1,3.5,1.6,6.3,1,9.3-1.5,8.8-7.3,21.8-7.9,30.6-1,8.4,6.6,17.8,10.1,28.3,11.4,1.7.2,3.5.7,5-.2,10.9-6.6,23.6-6.7,35.5-9.8,1.3-.3,2.7-.9,3.9-.5,8,2.8,16.9,2.2,24.3,7.6,9.8,7,20.9,8.2,32.4,3.4,8.7-3.6,16.7-3.5,24.8,2.9,5.3,4.2,12.8,3.3,18.8.6,6.7-3,11.8-2.3,17,2.3,8.6,7.5,10,7.4,19.1,0,4.7-3.8,9.8-5.6,15.6-2.3,1.7,1,3.4,1.5,5.4.8,12.5-4.6,24.9-1.2,37.2.9,4.2.7,5.8,4.4,7,8.1,1.9,6.1,2,6.1,7.3,3.5,7.2-3.5,11.6-2.6,16.7,3.7,2.1,2.6,4.5,4.5,7.9,4.9.7,0,1.7,0,2.2.4,5.6,5.8,11.3,1.5,16.3-.5,10-4.1,20.2-3.9,30.5-3.5,1.3,0,2.7.4,3.8,1.1,3.4,2.4,6.7,3.9,10.7.8,1.7-1.3,4.1-.3,6,.6,5.7,2.7,11.4,2.2,16.9-.5,4-2,7.6-1.8,10.9,1.4,1.8,1.8,4.2,2.4,6.6,3.1,6.3,1.8,12.3,4.1,17.9,7.9,4.9,3.4,11.5,3.1,17.4,2.1,5.8-1.1,11.2-1.4,16.4,1.6,4.4,2.6,7.8.6,11.3-2,5-3.6,7.2-3.4,10.8.7-2.1-4.8.4-7.4,3.9-9,3.6-1.7,5.1,1,6.2,3.8.6,1.5,1.4,2.8,3.3,2.4,4.4-.9,7.1,1.7,9.8,4.4.9.9,2,1.8,3,2.5,5.3,3.7,6.9,3.5,10-2.3,2-3.8,4.6-6.2,9.2-6.3,3.6,0,6.7-3,10.3-2.5,7,1,14.1,1,21.1,2,5.7.8,9.9,4.3,12,9.9,2.8,7.3,8.8,9.9,15.9,11,1.3.2,2.6.3,3.9.5,9,1.2,18,2.1,26.2-3.2.8-.5,1.7-1,2.6-1,6.8,0,13.3-.8,18.6-5.9,1.3-1.3,3.6-.7,5.2.7v169.2c-4.1,1-7.8-.8-11.5-1.8-5.3-1.5-9.5-.3-13.4,3.4-7,6.6-10.6,6.7-17.8.3-1.8-1.6-3.1-1.3-5-.4-6.9,3.3-13.7,3.4-20.6-.2-6.3-3.2-13.1-3.1-19.9-2.5-2.5.2-4.5,1.8-6.2,3.6-5.5,6.2-11.9,10.4-20.8,10.7-7.3.2-13.9,4.4-21.1,5.7-.6,0-1.2.5-1.4.9-3.7,8.2-12.9,8.5-19,13.2-3.3,2.6-6.7,2.3-10.3-.5-5.2-4.1-8.7-3.1-11.5,2.9-2.9,6.3-7,10.3-14.5,10.4-7.3.1-8.2,1.7-6.9,8.8,1.2,6.9-2.1,10.8-9,9.6-6.1-1-12.1-.2-17.9,1.3-8.1,2.2-16.5,3.2-24,7.7-3.9,2.3-5.7,4.6-5.3,8.7.5,4.5,2.2,8.4,7,9.9,2,.6,4.1.7,6.1,1.3,4.4,1.3,7.4,3.6,7.3,8.7,0,2.4.7,4.5,3.2,5.4,4.7,1.5,6.3,5.2,6.6,9.6.5,5.3,2.8,8.4,8.4,8.6,1.3,0,2.7.6,3.5,1.6,2.3,2.8,4.8,2.3,7.5.9,1.7-.9,3.8-1.5,5.2.1,3.1,3.6,7.7,2.6,11.5,3.8,2.1.7,4.1,0,5.6-1.7,1.5-1.9.3-3.5-.7-5.1-1.9-2.9-1.4-5.5,1.2-7.4,2.8-2,6-2,9.1-.4,1.2.6,1.3,1.9.8,3-1.9,3.4.3,4.6,2.7,6.6,7.2,6,17.1,6.7,24.2,12.8,1.5,1.3,3.5,2.2,5.3,3.2,7.3,4.5,5.9,11.2,4.1,17.6-1.3,4.7-1.5,8.7,1,12.9,1.6,2.8,1.4,5.8-.1,8.6-1.6,2.8-3.2,5.6-4.5,8.5-1.2,2.6-3.2,4-6,4.5-6.5,1.3-13.1,1.3-19.6.2-3.6-.6-6.8-.9-9.9,2.1-2.6,2.6-6.6,2.4-10,3.5-5.3,1.7-10.7,3.2-11.4,10,0,.4-.3.7-.5,1-2.8,4.5-18.4,10.9-23.7,9.7-2.1-.5-3.9-1.5-5.1-3.3-1.9-3-4.7-4.7-7.7-6.5-4.9-2.9-9.3-4.7-14.1.4-1.9,2-5.1,2.4-7.7,3.5-3,1.3-4.9,3.8-7.3,5.9-5.2,4.5-7.4,10.1-9,16.4-.7,2.9-3,5-5.9,5.5-7.7,1.4-12.7,7.7-20,10.2-4.3,1.4-4.5,6.6-5.3,10.6-.2,1.2.6,1.7,1.6,1.7,2.7.1,4.3,1.5,4,4.3-.3,2.9-1.8,4.9-5.1,4.9-421.3,0-842.7,0-1264,0-2.3,0-4.5,0-6.8,0-24.1-5.5-48.5-8.1-73.1-9.2-14.5-.6-28.9-.6-43.4-.9-4,0-7.9-.6-11.7-1.6-3-1.2-2.2-3.5-1.6-5.6.9-3.2,2.1-6.4,3.4-9.5.8-1.8,1.2-3.6-.3-5.2-1.4-1.5-3-1-4.7-.4-3.4,1.2-7.2,0-10.6,2.4-5.9,4-6.3,4.5-4.5,11.3.7,2.6,3.3,5.5-.4,8-10.9,1.3-21.8.8-32.7.3-3.8-.2-7.4-2.1-10.3-4.4-7.7-6.2-16.8-7.2-26-7.5-20.3-.7-40.5-3-60.5-6.4-14.2-2.4-28.1-1-42.1,0-7,.5-13.9.5-20.8,0-16.7-1-33.4-1.5-50.1.6-4.3.5-8.6,1.2-12.9,1-17-.6-33.8,1.4-50.6,2.9-14.2,1.2-28.4,2.5-42.7,2.8-16.1.3-31.6,4.5-47.2,7.9-9,2-17.9,4.4-26.6,7.6-7.7,2.8-15.7,1-23.5,1.1-11.4.2-22.5,1.2-33.3,4.7-44.5,0-89.1,0-133.6,0-1.8,0-3.8.5-5.5-.5Z"/>
        <path class="cls-7" d="M2038.4,1305.4c.6-1.2,1.4-2.3,1.7-3.5.7-2.7.3-5-3.3-3.1-2.3,1.2-4.4.8-3.6-1.6,2.2-6.6,2.5-14,12-16.4,6.1-1.5,11.3-6.6,17.7-8.9,3.4-1.2,4.6-6.1,4.1-10.2-.2-1.6-.7-3.3.7-4.1,7.2-3.8,10.2-13.2,19.4-14.4,2.2-.3,4.8-1,5.6-4,.4-1.6,2.2-1.5,3.4-1.3,6.4,1.1,12.3,3.8,16.4,8.8,3.9,4.7,7.8,6.3,13.5,3.7,3.9-1.8,7.4-4.5,11.5-5.8,1.6-.5,3.4-1.9,3.2-3.6-.7-6.5,4.5-7.4,8.5-9.5,5.3-2.7,12.5-1,16.3-7.5.6-1,4.9,0,7.4.6,6.3,1.2,12.6.9,19,0,3.4-.5,5.1-2,6-4.8.8-2.8,2.5-5,4-7.4,1.6-2.4,1.8-5.1.2-7.4-3.1-4.3-3.6-8.3-1.2-13.4,4.1-8.8,1.7-14.5-7.4-18.8-6.3-3-11.4-8-19-9-3.8-.5-6.8-5.3-11.1-7.1-2.2-.9-.7-3.2.7-4.7,2.1-2.3,1.2-3.3-1.5-3.2-2.5,0-5.2-.8-7,2.2-1.9,3.1.6,4.4,2.1,6.1,1.3,1.5,1.7,3,.2,4.5-1.9,2-4,4.9-7,3.3-4.4-2.3-10.5.9-13.8-5.2-.9-1.7-3.9,1.9-6.4,2.1-1.4.1-3.4,2.3-3.9.6-1.3-5.3-5.3-4.1-8.9-4.8-4-.7-4.9-4.1-5.3-7.7-.5-4.9-1-9.9-7.6-10.5-2.4-.2-2.4-2.4-2.5-4.4-.5-7.4-1.9-9-9-10-8.9-1.3-13.8-9-11-17.4.5-1.4,1-2.9,2.5-3.6,9.7-4.5,20-7.5,30.5-9.4,5.7-1.1,11.3-1.7,17.2-.3,4.8,1.2,7.2-3.6,5.6-9.4-.5-1.9-4-3.4-1.5-5.8,2.1-2.1,5-3.9,8-3.6,8.9.9,13.3-3.6,15.7-11.7,1.4-4.7,8.9-6,12.2-2.1,3.9,4.6,7.5,3.2,11.1.4,2.4-1.9,4.7-3.5,7.9-4,1.6-.2,3.6-1,4.5-2.2,8.2-11.9,21.3-11.4,33.4-13.3,5.3-.9,10.3-4,12.6-7.7,5.1-8.2,12.5-7,19.5-6.6,4.3.2,8.5,2,12.7,4,5.7,2.7,12.1,2.5,17.6-1.5,2.8-2,4.3-2.2,5.9,1.3,2.1,4.4,9.6,6.3,12.3,2.8,8.8-11.5,19-7.1,29.3-3.5v5.6c-3.2,2.4-7,2.2-10.8,2.2,4.5,1.9,4.7,3,2.4,6.7-4,6.4-5.8,13.7-8.1,20.7-1.4,4.3,2.3,6.7,6,8.2,3.5,1.3,7.4,1.5,10.5,3.9v141c-2.2,2-5,1.5-7.5,1.5-3.6,0-6.6.9-8.6,4.2-1.5,2.5-3.8,4.3-6.6,5.1-14.5,4.6-28,11.9-42.7,15.8-5.1,1.3-10.3,2-15.6,1.9-1.1,0-2.3,0-3.4.1-2.1.4-5.4.2-5.4,2.8,0,2.5,3.3,1.6,5.2,2,1.8.3,4,.2,4.9,2.2,3.8,7.9,11.9,10.5,18.8,14.1,4.6,2.4,8.9,4.5,11.5,9.2,1.9,3.4,4.3,6.3,9,4.7,1.8-.6,3.2.3,4.3,1.8,3,4.3,2.6,15.7-.6,19.9-.5.6-1.2.8-2,.9-17.5,0-34.9,0-52.4,0-1,0-1.8-.3-2.6-.8-6.9-5.1-9.8-5.1-16.5.2-.6.5-1.3.7-2.1.7-61.1,0-122.1,0-183.2,0-2,0-4.1.7-6-.7Z"/>
        <path class="cls-22" d="M2339.9,862.1c-3.7-.6-6.6.8-8.8,3.7-2,2.7-5,4-7.9,2.9-4.3-1.6-8.1-.1-11.2,1.9-8.5,5.6-17.4,2.9-26.2,2.2-1.7-.1-3.5-1.1-4.9-.2-2.7,1.7-4.1,1.3-4.4-2-.1-1.1-.9-1.7-1.9-1.7-5.4,0-7-3.6-8.3-8.1-2.1-7.2-10.9-11.6-19.3-9.7-2.6.6-4.7.8-6.8-1-1.2-1-2.8-.6-4.2-.8-5.5-.6-9.7,3.8-15.3,3.2-3.2-.3-3.9,4.1-5.2,6.7-2,4.2-4.2,6.5-8.9,2.9-2.2-1.7-4.7-3-6.6-5.2-2.5-2.8-4.8-5.3-9-2.4-2,1.3-3-.4-3.4-2.3-.4-2.5,0-6.4-3.7-5.4-2.6.8-7.2,3-3.7,7.9.5.7.4,1.8.4,2.7,0,1-.2,1.9-1.4,2-1.2.1-1.5-.7-1.8-1.7-1.8-5.2-4.1-6.4-7.7-2.9-5.3,5.2-10.4,6-16.3,1.5-1.4-1.1-3.2-1.2-4.9-1-6.6.7-13.2,2-20,1.1-2.5-.3-5.2-.2-6.7-2.1-3.9-4.8-9.5-5.9-14.8-7.5-4.1-1.2-8.3-1.7-11.2-5.5-1.5-1.9-3.8-1.6-6.1-.4-6.6,3.5-13.3,4.8-20.3.9-1.7-1-4.1-2.1-5.6.2-2.5,3.8-4.3,2.9-7.5.5-7.3-5.6-15.9-3-23.9-2.4-8.6.6-16.4,4.6-24.4,7.8-1.1.4-3,.8-2.9-.2.9-5.6-3.2-3.4-5.7-4.2-2.8-.9-5.5-2.5-7.2-5.1-4.7-6.7-10-7.6-17-2.7-4.6,3.1-5.7,2.7-6.8-2.6-1.7-8.7-2.5-8.9-11.5-10.7-7.4-1.5-14.8-2.2-22.3-2.1-3.2,0-6.3-.1-9,2.2-1.7,1.5-3.5,1.2-5.6-.3-5.3-3.8-9.7-3.4-14.6.8-1,.9-1.9,1.9-2.8,2.8-5.4,5.1-11,5-16.2-.2-8-7.9-8.7-7-19.1-3.7-6.4,2.1-14.7,3.9-20.7-2.3-5.5-5.7-12-5.2-18.2-3-6.2,2.3-12.9,2.4-18.9,5.2-.6.3-1.7.5-2.1.2-5.3-4.6-13.3-3.7-18.1-9.2-.8-1-2.2-2.2-3.2-2.1-6.2.2-11.7-3.7-17.3-3.5-6.9.3-14.1,1.1-20.7,3.8-2.3,1-4.6,1.6-7.1,1.5-2.1-.1-4.4-.4-6,1.1-7.8,7.4-15.8,3-24.1,1.3-8-1.6-13.3-7.2-19.6-11.3-1.4-.9-3.1-2.3-4.5-2.1-7.8.9-16.4-1-22.4,6.3-2.4,3-5.3,3.1-8.6,1.4-7.3-3.6-14.7-2.7-22.4-1-7.1,1.7-14.4.3-21.4-1.6-7.6-2-14.7-8.2-23.2-2.6-1.7,1.1-3.2-.4-4.8-.7-6.5-1.1-13.2-3.4-18.4,3.6-3.1,4.1-14.4,3.9-18.5.3-1.3-1.1-2.4-2.4-3.6-3.6-5.3-5-11.7-5.9-18.3-3.4-8.2,3.1-16.5,4.7-24.8-.4-5.4-3.3-11.6-2.9-17.6-3.7-8.2-1.1-16.6,1.7-24.2-.9-7-2.3-14-3.3-21.1-4.8-12.4-2.5-25-4.9-37.6-.8-2.9.9-5.8,1-8.3,0-5-1.8-8.7.2-12.4,2.9-5.1,3.7-10.3,5.6-16.6,1.9-4.1-2.4-8.8-1.9-12.8.9-4.5,3.2-9.1,3.1-13.7.6-3-1.6-5.9-2.1-9.2-1.1-1.8.5-3.7.6-5.6.6-9.2-.2-18.3,1.4-27.4,1.9-8.5.5-17-1.6-25.4-3.5-3.4-.7-6.7-1.3-9.9.4-10,5.2-20.4,7.6-31.4,3.5-10.4-3.9-20.3-1.8-30.4,1.4-8.3,2.6-17.5,1.5-25.5,6.2-2.8,1.6-6.3-.1-8.9-2.1-7.7-6.1-15.3-6.6-23.7-1.1-5.9,3.8-12.4,4.9-19.3,1.6-6.7-3.2-14-3-20.9-1.2-8.2,2.1-16.3.9-24-.5-8.4-1.6-15.9,1.4-23.8,2-11.6.8-23.3,1.5-34.8-.3-7.8-1.2-14.2,2.8-21.3,4-7.2,1.2-12.6,5.4-17.5,11.2-3.2,3.8-6.2,7.7-9.4,11.5-1.7,2.1-3.7,3-5.8,2.2-5.9-2.3-10.9,1.3-16.4,1.9-1.1,0-3,.1-3,1.9,0,.9,1.1,2,2,2.5,2.1,1.1,5,1.4,3.7,5-.8,2-.9,4.7-4,4.7-2.8,0-6.2,1.2-7.7-2.8-1.1-2.9-3.4-3.1-6-2.7-8.5,1.4-16.9,3-25.4,4.2-11.2,1.5-22.4-2.4-28.7-10-6.5-7.9-12.5-7.8-20.6-7-4.7.5-8.9-2.6-13.5-3.5-6.3-1.2-9.7,0-11.9,6-1.1,2.8-2.8,4.7-5.4,5.2-10.7,1.8-20.3,6.5-30.2,10.6-4.8,2-9.5,1.7-14.3.5-5.8-1.4-11.8-2-17.7-2.9-4.5-.7-8.9-1.8-13-4.7-7.4-5.4-16.5-7.2-25.4-8.5-5.5-.8-9.3-3.5-12.7-7.4-7-8.3-16.9-10.3-26.5-5.4-8.6,4.4-17.5,5.3-26.5,1.5-5.4-2.3-10.4-3.1-16.2-.5-7.4,3.4-14.1-.6-20.6-3.8-6.5-3.3-13.3-3.1-20.6-3.1-16.6,0-32.5,1.5-47.9,8.1-1.4.6-3.9.6-4.9-.2-7-6.3-16.2-5.1-24.3-7.5-7.2-2.1-13.4-1.6-20.1,2.4-5.9,3.6-13.1,4.2-20.1,4.4-6.4.2-12.8-.7-19.1,1.1-.7.2-1.5.2-2.2,0-16.6-4.6-33.1,1.7-49.7,0-4.1-.4-8.2-.2-12.3,1-9.2,2.6-18.2,5.4-28.1,5-3.7-.2-7.6,1.6-11.2,3.4-6.8,3.5-13.8,2.5-20-1-9.2-5.2-19-6.1-28.8-4.7-8.9,1.3-17.2,2.7-25.3-2.6-3.9-2.5-8.9-1.5-13.3-1.1-7.2.7-14.4,1.9-21.6,3.2-5.4,1-8,5-6.7,10.3,1,4.2-1.1,6.4-4.3,7.2-7.8,2-15.6,3.6-23.5,5.1-3.3.6-6.1-.6-9-2.5-6.9-4.6-12.7-4.1-19.2.8-4.3,3.3-9.2,4.4-14.5,5.3-13.6,2.3-24.6-4.4-36.2-9.1-1.6-.6-2.9-1.3-4.8-.6-6,2-8.8.5-11.1-5.7-.5-1.4-.3-3.6-2.2-3.2-2.2.5-1.3,2.8-.9,4.3.5,2,1,4.3,2.3,5.7,3.2,3.4.6,5.8-1,8.4-1.2,1.9-3.3,3.4-5.2,2-3-2.1-8.7-2.4-8-7.5.9-6.7-3.7-7.2-7.8-7.7-4.6-.6-9.3,0-14-1.2-1.9-.5-3.8.2-5.4,1.3-3.6,2.5-7.1,4.1-11.4,1.4-1.8-1.1-3.2.2-4.4,1.5-5.6,6-12.7,5.5-19.9,4.7-1.5-.2-2.9-.8-4.3-1.4-4.1-1.5-7-.6-9.4,3.4-6.5,10.9-6.8,11-16.3,2.7-4.5-3.9-9.5-6.3-15.4-6.9v-7.9c3.3-2.4,6.1-.4,8.8,1.2,1.9,1.2,3.3,3.1,5.1,4.4,6,4.6,7.8,4.2,13.5-.4,6.6-5.4,13.5-9.7,22.6-5.3,4.4,2.2,8.2-.6,11.4-3,3.7-2.8,7.6-3.1,12.1-3.4,9.4-.5,18.7,1.7,28,.4,4.5-.6,8-2.7,11.1-6.1,8.3-9.1,16.8-7.8,22.1,3.2.7,1.5,1.2,3.2,2.6,4.3,1.4,1.1,3,1.7,4.7.9,1.8-.8,1.5-2.4,1.2-3.9-.2-1.1-.6-2.2-.6-3.3,0-2.3,1.4-3.9,3.5-4.6,2.3-.7,4,0,5.2,2.2.9,1.7,1.6,3.4,2.4,5.1.8,1.7,2.1,2.7,4,2.4,5.5-1.1,11.3.3,16.8-1.8,1.6-.6,3.5-1,5-.2,9.5,5.2,20.6,5.4,30.5,9.3,4,1.6,8.1,1.5,12.2,1.1,2.4-.2,4.6-1.2,5.2-3.6,3-12.4,13.1-14,23.2-14.8,5.7-.5,11.1-1.2,16.4-3.6,6-2.7,12.6-1.7,19-1.1,4.9.4,9.7.8,14.6.8,1.7,0,3.5-.3,5.1,0,12.7,3.1,25.7,3.2,38.6,3.9,22.4,1.2,44.7,2.8,65.9-6.8,3.1-1.4,6.5-2,9.9-1.4,6.2,1.1,12.4,1.2,18.6.8,8.7-.6,17,3,25.7,2.5,8.1-.5,16.1-1.6,24.2-1.4,4.1,0,7.6-2.1,10.3-5.2,5.8-6.6,12.6-7.6,20.9-4.8,14.1,4.8,28.7,6.1,43.4,3.3,4.7-.9,9.3-.9,14-1,13.3-.3,26.8-.9,40-.6,15.9.3,31.9-2.1,47.8.4,4.6.7,9.4.2,14.1.2,12.8,0,25.5,0,38.3,1.9,7.5,1.2,15,.2,22.3-2.3.7-.3,1.4-.7,2.1-.7,12.6.2,25-4.8,37.7-.3,6.5,2.4,13.5,2.3,20-.1,10.5-3.9,20.9-5.3,31.9-1.6,6.4,2.1,12.5-.8,16.7-5.7,5.1-6,11-6.8,17.7-4.1,6.6,2.6,13.4,3.5,20.4,3.9,4.3.2,8,1.9,11.6,4,2.8,1.6,5.5,3.3,8.5,4.4,4.8,1.8,8.7.9,12.2-2.9,8.5-9.1,19.1-11.2,30.9-9,2.6.5,5,1.5,7.6,2.2,9.2,2.6,18.2,3.9,27.7.8,7.5-2.5,15.5-2.7,23.4-1,8.9,2,17.6.9,26.1-1.7,11,1.9,21.8-1.2,32.7-1.2.6,0,1.3.2,1.9.4,10.3,0,20.6,3.8,30.9-.3,7.3-2.6,14.6-1.4,21.9,0,5.3,1.9,9.8-.9,14.6-2.2,11.5-1.5,23.1-5.6,34.6,0,10.6,3,21.1,3.7,31.2-1.5,4.8-2.5,9.6-2.6,14.8-1.5,9.5,2,18.4,1.6,28.1-1.5,9.7-3,20.5-4.9,30.9-.4,7.6,3.3,15.6,4.4,24.1,4.6,8.9.1,17.5,0,26.1-2.3,3.6-.9,7.1.4,10.5,1.2,4.2,1,7.8.2,10.8-3,3.8-4.1,8.6-5.9,14.2-5.9,3.3,0,6.3-.8,9.1-2.7,4.1-2.7,8-2.8,11.8.8,4.3,4.1,9.6,4.1,14.9,2.7,4.9-1.3,9.6-1.2,14.4.4,3.6,1.1,7.2,2,11,.7.7-.2,1.5-.3,2.2-.2,9.5.8,18.9,2.5,28.6-.5,6.1-1.9,12.8,2,19.2,3.6,5.7,1.4,11.4,2.8,17.2,2.7,5,0,9.3,1.5,12.5,5.4,2.3,2.8,5,3.7,8.5,2.7,5.8-1.6,11.8-1.8,17.6-3.7,5.4-1.8,10.8-.8,15.5,2.8,4,3.1,8.9,3.8,13.7,4.9,3,.7,5.6-.5,7.3-3.1,2.1-3.2,5.1-3.6,8.8-3.8,9.5-.5,18.8.3,28,2.2,1.4.3,2.6,0,3.8-.4,4.1-1.7,8.1-1.3,12,.8,2.9,1.6,5.5,1.2,8.6.4,10.5-2.7,20.8-5.9,32-2.2,6.3,2.1,13,2.4,19.8-.3,7.5-3,15.2-1.7,22,3.2,6,4.4,13.6,5.1,20.1,8.6,2.2,1.2,5.4,1,7.6-.7,3.1-2.5,6.3-2.7,10-2.3,4.5.6,8.4-1,12-3.9,6.1-5,9.2-4.3,16.4-.9,6.4,3.1,13.2,7.6,21.1,3.4,1.7-.9,3.8-1,5.5-.3,5.2,2.1,10.5,2.3,16,1.8,4-.4,7.3,1.5,10.4,3.8,2.8,2.1,5.9,2.9,9.5,2.6,8.7-.8,17.6-2.4,25.9,2.4,1.2.7,2.6.6,3.8-.1,4.4-2.7,9.3-2.6,13.6-.7,7.9,3.5,15.3.7,22.4-1.6,8.2-2.6,16.2-2.3,24.4-.9,15.8,2.7,31.5,5.8,47.5,1.1,4.8-1.4,9.7-1.1,14.6-.9,3.4.2,6.3,1.6,8.1,4.5,2.6,4.1,5.9,5.2,10.9,5,7.3-.3,14.7.5,21.6,3.3,5.9,2.4,11.4,3.5,17.1-.6,3.2-2.3,7.4-2.6,11.2-3.6,3.1-.8,5.5,1.1,7.6,3,3.9,3.6,8.2,5.7,13.7,5.4,3.6-.2,7,1.3,10.1,3.1,2.9,1.6,5.5,1.9,8.4.1,4.5-2.7,9.2-3.1,13.7.4,2.4,1.8,5.3,2.3,8.1,1.4,8.6-2.8,15.5.7,22,5.6,2.7,2,5.2,3.5,8.7,3.1,3-.3,5.5,1.1,7.8,2.9,2.7,2,4.2,1.2,5.7-1.7,6.1-12,10.8-13.8,23.5-9.2,5.7,2.1,11.6,3.3,17.7,3.2.9,0,2-.2,2.8.1,10.2,3.4,20.9.3,31.2,2,5.6.9,11-2,16.8-1.4,1.9.2,3.9,0,5.5,1.1,5.6,3.9,12,5,18.5,6,4.8.7,9.7,1.7,13.7,4.8.7.6,1.8,1.2,2.6,1,7.5-2,14.8,1.7,22.3.6,8.1-1.1,16.2-2.1,22.7,4.8,1.8,1.9,4.8.6,7,1.8v6.8Z"/>
        <path class="cls-46" d="M1034.5,795.6c-7,2-13.7,4.2-21.4,2.5-10.9-2.4-21.8-2.1-32.6,1.7-8,2.8-16,.4-23.5-2.1-8.6-2.8-16.9-4.5-25.7-1-4.4,1.8-8.6,3.1-11.4,7.5-3,4.8-8.8,6.3-14.4,2.9-10-6.3-20.7-8.8-32.3-9.5-4.2-.3-8.1-2.7-12.3-3.9-4.2-1.1-7.7.2-10.4,3.8-5,6.8-13.6,9.7-21.3,7-8.2-2.9-16.2-2.8-24.2.4-10,4.1-20,4.5-30.1.4-3.2-1.3-6.4-1.6-9.8-.7-5.4,1.5-10.8,2.5-16.5,1.2-4.7-1.1-8.6,2.3-12.9,3.3-8.8,2-17.5,1.3-26.2,0-12.9-2-25.9-.5-38.8-1.1-5.6-.2-11.2-1.1-16.8-1-27.9.2-55.8.6-83.7,1.1-6.7.1-13.2,2.5-20,2.3-11.1-.3-22-1.3-32.4-5.4-6.4-2.5-12.3-1.3-16.7,4.1-4.2,5.1-9.3,7.4-15.7,6.8-5.9-.6-11.6,1.5-17.4,1.1-15.8-1-31.7-2.1-47.5-3.3-3.6-.3-7.1.2-10.4,1.7-11.4,5.3-23.4,6.9-36,7.5-17.3.9-34.6,0-51.4-2-16-1.9-32-2.7-48-3.9-1.5-.1-3.4-.5-4.4.2-9.5,6.1-20.7,3.7-30.7,6.6-5.2,1.5-8.8,5-9.6,10.5-.7,5.1-3.8,6.1-8.2,6.4-9.1.6-17-3.3-25.4-5.5-2.2-.6-4.1-1.7-6.5-1.2-.7.2-1.7.5-2.2.1-9.9-7.9-20.4-1.8-30.7-1.6-2.2,0-3.9-.4-4.1-2.8-.1-2.2-2.1-3.6-2.3-5.6-.3-2.6-1.8-3.3-3.9-2.3-1.7.8-3.2,2-2.2,4.4,1.3,3,3.6,6.5-1.1,8.5-4,1.7-7.8-.9-9.5-6.2-1.6-4.9-4.7-8.5-9.6-9.1-4.3-.5-7.6,2.1-10.2,5.8-5.1,7.2-13.2,7.6-20.8,7-3.8-.3-7.6-.7-11.5-.8-8.7-.3-17.3-.4-24.4,5.9-1.8,1.6-4,2.1-6.7.8-7.6-3.6-16.2-1.9-21.9,3.9-2,2.1-2.8,5.7-6.7,5.2-4.5-.6-8.3-2.9-11.1-6.2-3-3.4-6.3-5.1-10.7-5.1v-10.2c4.3-4.3,6.7,0,8.2,2.6,2.4,4.3,6.1,6.5,10.1,8.6,2,1.1,4,1.3,5.9,0,4.7-3,10.2-4.9,13.6-9.7,2.7-3.8,6.5-4.4,11.1-3.2,8,2.1,15.5,2.1,23.3-2.4,8.8-5.2,18.2-6.5,26.4,3.2,1.7-4.5,4-7.3,8.7-7.2,1.5,0,2.5-1.5,3.6-2.5,1.9-1.9,4-1.4,6.5-1.3,5.5.2,10.7.4,16,2.6,2.6,1.1,6.5-1.2,9.9-1.2,3.2,0,6.4.2,9.4,1.4,3.6,1.4,7,4.6,10.8-.4,1.3-1.7,3.9-.1,4.8,2.2,1.1,2.8,3.1,4.2,6.1,3.8,5.9-.7,11,1.8,16.4,3.5,1.4.5,2.9,1.7,4.3.9,4.9-2.5,9.7-1.9,14.8-.5,3.2.9,5.8-1,7.7-3.7,1.4-1.9,2.9-3.7,5.5-3.3,7.5,1.2,14.3-2.3,21.3-2.7,7.4-.4,11.8-3.8,17.6-7.1,6.3-3.6,15.5-2,23.4-3.4.8-.1,2,.5,2.5,1.2,4.2,6.1,9.3,3.8,14.4,1.8.7-.3,1.4-.4,2.2-.5,4.5-.1,9.1-.5,13.2,2.1,4.4,6.5,12.7,5.8,19.9,1.5,7.5-4.5,12.6-4.7,20.5-.3,14.9,8.4,30.5,5.7,45-2.9,6.4-3.8,12.9-3.5,20-3.5,10.6,0,20.1,4,30.1,5.7,12.2,2.2,24.5.5,35.9-5.9,10.6-5.9,22.4-7.3,34.4-5.4,11.9,1.9,23.8,3,35.8,3.3,4.2,0,8.3-.9,12.1-2.3,8.8-3.3,17.7-3.3,26.6-1,7.1,1.9,14,1.8,21-.3,6.7-2.1,13.4-1.7,20.1,0,10.7,2.8,21.4,2.9,32.3,1.2,7-1,14.3-.8,21.4,0,12.3,1.4,24.3.9,36.3-2.4,8.9-2.5,18.2-2.5,27.3-2,5.2.3,10.6,1.2,15.7.5,10.5-1.5,21-.9,31.5-.8,9.4,0,18.7-1.8,28.1-1.5,3.9.1,7.5-1.4,10.5-3.6,11-7.9,23.3-7.3,35.8-5.5,4.7.7,9.3,1.7,13.7,3.4,9.1,3.6,18.2,1,27.3,0,13.2-1.5,26.2-.9,39.3,1.4,9.1,1.6,18.1,3.3,27.4,1.3,2.5-.5,5.3-.2,7.9,0,.7,0,1.3.2,1.9.4,10.8,1.7,21.4,0,31.8-2,12.5-2.5,25-2.4,37.5-1,1.7.2,3.5.5,5,0,8.9-2.5,18.3-1.4,27.3-3.7,5.2-1.3,10.4-1.5,15.5.7,8.2,3.6,16.6,1.6,24.9.4,2.7-.4,4.8-2.2,6.5-4.2,2.7-3.3,6-4.4,10-2.6.6,0,1.3.2,1.9.4,4.1,1.4,7.6,4.3,11.6,5.7,10,3.4,20.2,4.3,30.2-.3,6.2-2.8,12.7-3.4,19.3-2.4,2.2.3,5.6-.2,6,3.6-1.5,1.3-3.5,1.6-5.3,1.2-6.8-1.3-12.8.4-18.8,3.4-9.1,4.5-18.5,1.8-27.9.8-11.7-5-23.3-.6-35,0-4.5.7-8.7,3.8-13.6,2.3-7.5-.2-15.1-2.4-22.6,0-10.5,2.2-21.1.4-31.6,0-1-.8-2.2-.7-3.2-.6-10.2.9-20.4,1.6-30.6,1.7Z"/>
        <path class="cls-6" d="M1171.1,792.2c6.3.3,12.7-.7,19.1,1,3.3.9,6.1-1.6,8.8-3.1,7.6-4.4,15.8-3.7,24.1-3.5,5.1-1.8,10.1-3.5,14.4-7.2,2.1-1.8,5-1.1,7.6-.3,5.9,1.8,11.8,2.3,17.8.8,2.1-.5,4.3-.7,6.1.4,5.1,3.1,11.2,3.1,16.4,5.6.7.3,1.5.6,2.2.6,14.5-.8,29.1,5.8,43.5-1,1.2-.6,2.5-1.2,3.8-.8,5.9,2.2,9.9-.8,14.9-3.6,7.4-4.2,15.1-8.2,23.3-10.9,5.4-1.8,10.5-.3,15,2.7,3.9,2.6,8,3.9,12.6,4.4,4.1.4,8.1,1.1,12.1,2.5,5.4,1.8,10.9.8,16-1.3,7.5-3.1,15.1-3,22.8-1.9,6.9,1,13.7,2.1,20.5,3.9,7.9,2.2,16.1,1.4,24.1,1.7,4.8.2,8.8.9,12.6,3.8,4.3,3.3,8.5,5.7,14.4,3,5.7-2.6,11.5.5,17.1,1.5,3.6.6,7,1,10.6.4,2.4-.4,4.9,0,7.2.8,3.5,1.2,6.5.8,9.5-1.5,3.7-2.8,8.4-2.5,12.5-2,4.8.5,9.8.8,14.2,3,3.2,1.6,7,1.7,9.9.2,5-2.5,10.1-2.5,15.3-2.7,7.9-.4,15.8-.4,23.6-1.4,4.6-.6,9,.3,13,2.7,6.4,3.2,12.7,3.5,19.5.8,6.3-2.4,13.1-3.2,19.7-4.3,7.5-1.2,13.9,1.9,18.9,7.8,5,5.9,6.4,6.3,13.5,3.1,3.6-1.6,7-2.3,10.9-1.4,4.2.9,8.2-.6,12-2.3,3.5-1.6,6.7-1.4,10.4-.6,7.8,1.8,15.5,3.6,23.8,3.4,10.8-.3,21.5,2.8,32.5,2.3,2.9-.1,5.4,1.5,7.8,3,4.2,2.7,8.7,3.2,13.5,2.6,4-.4,7.9-.5,11.6,1.2,2.3,1.5,4.6,1,7,.5,5.9-1.2,11.9-2.2,17.3,1.9,1.7,1.3,3.5,1.1,5.3.3,4.3-1.8,9.1-2.3,13.2-4.9,2.5-1.6,5.4-1.5,8.2-.4,4.2,1.6,8.6,1.7,12.7.4,6-1.8,11.5-.8,17,1.5,8,3.3,16.3,4.4,24.7,1.7,8.7-2.7,17.7-3.5,26.5-5.6,6.3-1.5,11.3.8,15.2,6.1,4.5,6.2,5.9,6,13.4,4.8,7.6-1.2,15.1-4.1,23.1-2.7,1.9.3,3.7-.3,5.4-1.2,3.5-1.7,7.2-1.3,11-1.2,7.6.2,13.8,2.8,18.9,8.5,1.4,1.6,3.4,2.8,5.3,3,8.8.9,17.1,5.1,26.4,3.1,6.4-1.4,12.7.6,19,1.6,6.7,1.1,13.3,2.3,20.1,1.2,2.5-.4,4.8-.7,6.9-2.1,3.5-2.5,7-2.4,10.6-.3,3.4,1.9,7,2.8,10.8,2.6,5.1-.2,10.2,0,14.9,2.5.8.4,1.9.8,2.7.6,8.3-2.4,14.9,2.2,21.9,5,1.4.6,3,1.3,4.3.8,5.9-2.1,12.2-1.9,18-3.8,4-1.3,7.7-2.6,12-2.5,2.4,0,5,0,7.3-.8,10.1-3.4,18.4.6,26.3,6.1,1.1.7,2.1,1.8,3.4,1.9,9.6,1.1,18.1,6.1,27.4,8,6.9,1.4,14.5,2.3,21.8.9,4.4-.9,8.7-.5,11.8,3.4v9c-4,1.8-6.8,1.4-10.2-2.4-4.8-5.4-12-3.6-18.1-2.8-4.4.5-8.5.9-12.7-.7-.4-.1-.8-.5-1-.4-12.8,3.7-22.9-7.6-35.3-6.4-1.6.2-3.7-1-5.1-2.2-6.2-4.9-12.8-4.3-19.9-2.6-2.8.7-6.1.8-8.9.2-4.7-1-9.2-1.3-13.8.3-.8.3-1.9.6-2.7.3-12.3-4-25.6-2-37.9-7-8.7-3.5-14.4.4-17.1,9.3-1.8,5.9-3.4,6.5-7.8,2.6-1.5-1.3-3.3-3.2-4.8-2.7-7.4,2.7-11.1-3.6-16.2-6.3-5.1-2.7-9.9-4.6-15.9-2.5-3.7,1.3-7.6,1.2-10.9-2.2-3.6-3.7-8.1-1.9-11.3.5-3.4,2.6-5.7,2.4-9,.1-2.9-2-6.4-3.6-10-3.4-5.6.4-10.2-.6-14-5.2-5-6.1-11.6-3.3-16-.4-8.2,5.2-14.9,3.1-23.1.5-6.1-2-13.2-3.9-20.2-2-2.8.7-6.1.9-7.5-2.2-4.5-10.4-13.8-9.2-21.2-7-16.2,4.8-32.1,2.2-47.9,0-5.9-.8-11.8-1.5-17.7-1.8-6-.3-11.1,2.9-16.6,4.4-6.5,1.7-12.1,0-17.9-1.5-2.1-.6-4.8-1.4-6-.4-5.3,4.5-9.6.9-14.6-.5-5.4-1.4-11.5-1.1-17.1-.3-4.9.7-9.1,1.1-13-2.6-4.2-4-9.4-4.4-14.8-3-1.7.5-3.3.7-4.9-.2-5.1-2.6-10.2-4.1-15.1.3-.5.4-1.7.6-2.1.3-4.9-3.4-11.7-1.9-16.4-6.1-4.8-4.3-9.3-4.1-14,.5-4.8,4.7-10.2,5.6-16.4,4-1.4-.4-2.3-.4-3.5.6-4.9,4.3-10.2,4.6-15.6,1.1-.3-.2-.6-.5-1-.5-11-1.6-18.7-12.6-30.9-10.8-1.5.2-3.2,0-4.4.7-7.7,4.8-15.6,2.4-23.3.3-5.8-1.6-11.1-.9-16.9.2-5.6,1.1-11.3,1.4-16.3,4.3-.1,0-.4.1-.5,0-11-7.4-23.9-.7-35.6-4.7-5.1-1.7-11,1.1-16.5-.2-1.4-.3-2.6,1.3-3.2,2.8-1.6,4.5-5.5,5.5-9.2,4.3-5.2-1.6-10.9-1.8-15.4-6-4-3.7-9.7-3.6-14.7-1.5-6.5,2.7-13.7,2-20.3,4.2-2,.7-3.3-.8-4.5-2.6-3-4.6-7.1-6.7-12.9-6.4-9.9.5-19.1-3.2-28.5-5.6-5.8-1.5-11.1-1.3-16.4,1.4-2.9,1.5-5.5,2-8.8,0-3.9-2.4-8.8-1.8-13.1-1.2-3,.4-6.1,1.1-8.7-.1-7.5-3.5-15-.9-22.4-.2-4.3.3-8.1-.7-10.9-4.3-2.5-3.2-5.6-3-8.4-.8-3.6,2.8-7.3,3.8-11.9,3.6-3.8-.2-8.1.7-10.6,4.2-4.6,6.4-10.7,6.3-17,4-3.3-1.2-6.2-.7-9.3-.1-16.9,3.4-33.5,3.8-49.6-3.5-2.3-1-5.2-1.6-7.7-1.4-8.8.7-17.5.5-26,4.3-6.6,3-14.5,2-21.6.2-6.1-1.6-11.5-1.4-17.4,1.4-9.9,4.6-20.2,4.5-30.4.7Z"/>
        <path class="cls-12" d="M1655.6,791.1c-5.8-2.9-11.9-2.4-18.1-1.8-8.1.9-16.3,1.3-24.5.8-1.6,0-2.9,0-4.2.9-5.4,4-10.4,2.7-16.7,1.1-8.1-2.2-17.5-6.3-25.7,1.1-1.8,1.6-4.2,1.6-6.4.8-4.3-1.7-8.5-1.7-13.2-1-3.9.6-8.3-.8-12.3-2.2-4.1-1.4-8.4-2-12-.1-6,3-10.1.4-14.3-3.1-3.5-3-7.2-3.7-12.2-3.8-7.5-.1-15.3.4-22.9-1.4-11.1-2.7-22.2-5.3-33.7-4.8-1.9,0-3.8-.1-5.5.8-9.8,5.1-19.6,2.8-29.9,1.5-8.8-1.1-15.5-6-23.4-8.2-5.1-1.4-10-.7-14,3.1-1.5,1.5-3.4,2.2-5.4,2.9-5.3,1.8-10.7,3.3-14.6,7.9-1.6,1.9-4.4,3.1-6.7,2-5.4-2.7-10.1,0-14.9,1.2-7.3,1.7-14.5,3.9-21.7-.4-.6-.4-1.5-.7-2.1-.5-8.3,2.7-16-1.2-24-2.3-1.8-.2-3.1-.9-4.5-1.9-3.2-2.3-6.5-3.2-10.6-1.9-5.5,1.7-11.1.9-16.4-.9-3.4-1.1-6.5-1.9-9.3,1.1-3.6,3.8-8,5.4-13.2,4.7-8.1-3.7-16.3-3-24.3.3-12.4,5.1-24.5,5.2-36.1-2.2-2.4-1.5-5.5-1.3-7.4-3.7,3.4-2.5,6.7-1.2,10.1.2,6.2,2.7,8.2,1.9,11.1-4.1,2.7-5.6,5.2-6.2,9-1.7,2.7,3.1,6.1,3.8,9.6,3.8,8.9.2,17.7.6,26.3,2.9,2.5.7,4.8-.2,7.1-1.2,3.5-1.5,6.8-3.3,10-5.2,2.6-1.6,5.5-3.4,8.4-2.8,10.7,2.3,21.8,2.4,32,6.9,1.9.8,3.8,2.3,5.7,2.3,12.8-.1,25,4.9,37.7,4.5,5.2-.2,9.7-3.2,12.8-7.4,3.4-4.6,7.8-6.4,13.1-7.7,9.5-2.3,19.4-1.6,28.8-4.7,7.7-2.5,14.2,2.2,20.4,6,3.1,1.9,6.3,1.9,9.4,2.9,8.6,2.6,16.1-1.1,24-2.8,9.4-2,18.8-2.1,27.7,1.5,4.8,1.9,9.1,2,13.6,0,4.5-2,8.6-2.2,12.7,1,3.2,2.5,6.9,2.6,10.7,1,2.8-1.2,5.6-1.9,8.8-1.7,4.7.3,8.3,1.3,9.1,7,.5,3.6,3.4,5.3,7.1,5.1,6.8-.4,13.5-1.2,20.1,1.1,1.7.6,3.4-.2,4.8-1.1,5.3-3.1,10.6-3.1,16.3-1.1,4,1.4,8.3,1.9,12.6,1,11.2-6.1,23.1-4.8,35-3.2,8.2,1.1,16.4,2.8,24.8.2,7.5-2.2,14.3,1.6,20.9,4.5,2.9,1.3,5,1.6,8.3.1,4.6-2.1,8.8-5.1,13.4-7.1,6.1-2.7,11.8-3.7,18.1.5,4.4,3,10.6,1.9,15.4,4.9,7.2,4.6,14,4.4,22,.7,9.2-4.3,19.5,0,29.4,0,4.3,0,8.5,1.1,12,4.1,1.4,1.2,3.1.8,4.8.2,3.5-1.2,7.1-2.3,10.8-3.2,3.7-.9,7.2-.9,10.7,1.4,3.7,2.4,7.7,4.4,12.7,2.8,1.7-.5,4.2.3,5.9,1.2,8.2,4.3,16,3,24.3,0,8.1-2.9,16.4-1.9,24.1,2.4,1.1.6,2.6,1.8,3.5,1.5,6.4-1.9,12.8.9,19.3-.8,5.8-1.5,12.3-1.7,18.1-.7,9.7,1.7,19.6.8,29.3,2.8,6,1.2,12.1,1.7,17.9-1.9,2.2-1.4,5.6-.5,8.2.8,4,2,8.3,1.4,11.3-.6,4.9-3.3,10.6-4.7,15.6-7.5,4.6-2.5,7.8-1.1,9.6,3.2,2.9,7,7.2,9.8,15.2,8.6,6-.9,12.2-1.1,18.3-2.2,4.1-.8,8.4-.6,12.7,1,4.5,1.8,9.3-2,14.2-.3,1.8.6,4.1.5,5.1,2,4.2,6,11.4,6.6,17,9.9,9.7,5.8,19.5,6.5,30,5.2,4.9-.6,9.2,2.1,14.1,2.5,9.1.8,16.3-2.3,22.5-7.9,3.6-3.2,7.6-4.5,12-5.6,8.8-2.1,17.8-4.4,24.7,4.1,2,2.4,4.2,4.3,6.9,5.6,6.7,3.3,13.4,6.5,20.1,9.7,2.2,1,4.1.2,5.5-1.5,2.4-2.9,5.4-3.1,8.7-2,4.4,1.5,8,.2,11.5-2.4,13.4-10,29.8-7.6,39.8,5.9,4.9,6.6,18,8.4,24.6,3.3,10-7.8,11.5-7.9,19.5,1.8,3.1,3.8,5.7,5.2,10.4,3.5,2.2-.8,4.8-.2,7.3-.2v6.8c-6.4.4-12.7.3-19-1.1-5.3-3.1-10.9-1.9-16.4-1-6.7-1.1-13.6-1-20.1-3.4-3.1-1.1-6.3-2.1-8.9-4.1-2.3-3-5.5-5-8.4-7.4-.6-.5-1.2-1-1.7-1.6-3.9-2.9-8-5.1-12.9-2.1-.9.6-1.8,1.1-2.8,1.6-3,1.2-6.4,1.4-9,3.5-4.7,2.9-10,3.2-15.2,3.1-3,0-5.5.5-8,2-7.3,4.1-17.9,1.7-22.8-5.2-1.3-1.8-2.5-3.7-4.3-5.2-4-2.1-8.2-3.9-11.5-7.1-3.3-3-6.9-5.2-11.7-3.3-3.5-.1-6.2,1-8,4.1-1.8,3-4.6,4.8-8.1,5.5-.5.2-1,.3-1.5.4-2.9.4-5.9,0-8.4,2.2-1.6.8-3.2,1.4-5,1.6-4.3.7-8.5-1.3-12.8-.9-4.3.8-8.6.9-12.8-.8-.5-.2-1.1-.4-1.6-.3-10.6,2.3-20.6-2.4-31-2.4-3.8,0-7.1-1-9.3-4.3-4.1-6.2-8.7-9.6-17.2-8-10.6,2-21.6.7-32.4,1-6.4-.2-12.8-.8-19.1-2.3-1.6-.7-2.8-1.9-4.1-3-5.5-4.6-11.4-5.3-17.7-1.7-3.5,2-7.2,3.9-11.2,3.2-4.9-.9-9.2,0-13.6,2.2-6.6,3.2-13.3.3-19.9-.5-2.4-.3-4.8-1.1-7-2.1-4.6-2.3-8.6-2.2-13.3.4-3.7,2-8.4,2.2-12.4-.1-3.2-1.8-6.4-1.9-9.6,0-3.7,2.1-7.2,1.7-10.6-.6-3.8-1.9-7.7-1.3-11.6-.5-1.5.3-3,.7-4.4.4-5.1-1.4-9.3.3-13,3.8-6-1.5-12.2-1.7-18.3-1.9-1.9,0-3.9.3-5.5-1-8.9-7.2-19.7-6.5-30.1-7-5.4-.2-10.9-.5-16.3.5-4.2.8-8.2-.5-11.9-2.4-7.4-3.8-14.9-3.3-22.4-.7-3.8,1.3-7.4,2.5-11.5,1.1-1.1-.4-2.4-.5-3.3,0-8.9,4.4-15.9-.9-23-4.7-6.9-3.6-13.3-3.8-21-2.4-10.8,1.9-21.5,6.8-32.9,3.1Z"/>
        <path class="cls-55" d="M2266.5,821.5c.4.4.8.8,1.1,1.1,1.7,3.3,5.3,4.5,7.9,6.8,6.1,4.5,13.1,6.7,20.6,6.7,3,0,5.9.3,8.7,1.2.9.8,2.1,1,3.1.6,4.4-1.9,8.5-.9,12.7.6,6.3,1.5,13-.6,19.2,2.3v5.6c-4.8-2-9.6-1.5-14.7-1.6-8.2,0-16.5.1-25-2.9-6.5-2.3-13-7.1-20.8-5.7-1.6.3-2.8-.7-4-1.7-7.8-6.4-16.2-10.2-26.7-6.7-3.1,1.1-6.9,1.7-10.4.7-2.2-.6-4,.6-5.8,1.6-2.9,1.8-5.9,3.4-9.5,1.9-1.1-.5-2.3-.3-3.2.4-7.6,5.3-14.2,1.4-20.9-2.1-1.3-.7-3-2.1-4-1.8-9,3.1-17-3.6-25.8-2.5-4.8.6-9.3-.2-13.4-3.2-1.9-1.4-4.5-2.1-6.4-.7-8.3,6.3-17.4,4.6-26.5,3-5.3-.9-10.7-1.8-16.1-2.4-3-.3-6-.4-8.9.9-1.2.5-2.9,1.4-3.7,1-9.9-5.1-22.5-1.6-31.2-12-5.3-6.3-15-5.8-23.1-3.2-3.5,1.2-6.6,2.7-10.1.5-.8-.5-1.8-1-2.6-.3-6,5.3-14.1,1.3-20.8,4.7-3.1,1.6-7.4-.3-9.7-4.6-4-7.3-8.2-8.8-16.3-6.9-10,2.3-20.1,4.2-30.1,6.6-5.3,1.3-12,.6-17.5-2-6.5-3-12.6-4.7-19.9-2.4-4.1,1.3-8.9,1.3-13.2-1-1.6-.9-3.4-1.3-4.8-.1-4.6,3.7-10.9,3.3-15.8,6.5-1.8,1.2-3.7,1.1-5.1-.4-5.2-5.4-11.4-3.7-17.3-2.1-2.9.8-5,1.2-7-1.2.6-.8,1.7-.4,2.3-1.1,2.1-4.5,5.1-6.7,10.4-4.7,1.9.7,4.4.1,6.6.1,4.1-.9,8.3-.9,12.4,0,2.8,2.7,5.8,3.2,9,.7,3.3-2.7,6.9-1.9,10,0,5,3.2,9.7,2.4,14.1-.7,3.4-2.3,6.2-2.5,9.9-.6,6.9,3.7,15,5.7,22.2,4.6,9-1.4,17.8-3.5,27-4.2,3.4-.3,5.6-4,9.5-4.5,7.1-.9,12.3,2.1,16.9,6.9,4.1,4.4,9.6,1.2,14.3,2.7,1.4.5,3.3.6,4.9-.5,3.5-.5,6.8-.7,10.4-.2,9.2,1.1,18.4-.3,27.4-1.7,3.7-.6,6.4.9,8.1,3.8,4.1,7.1,9.8,9.1,18.1,10,9,1,17.9,1.1,26.8,2.1,4.4.5,8.6,1.8,13,.7,4.5.9,8.9,2.8,13.6,1.1l4.5-1.1c2.7-2.2,6.1-1.1,9-2.3,4.1-.3,7.3-2,9.1-5.8,1.6-3.4,4.9-3.4,7.8-4.3,5.2-2.6,8.8.3,12.4,3.4,2.6,4.2,6.4,6.5,11.3,6.8,1.8,1.8,3.7,3.2,4.9,5.8,2.7,6.1,14.7,9.4,19.8,5.3,5.3-4.3,11.4-1.8,17.1-3.1,2.7-.6,5.4-1.1,7.9-2.4,2.8-1.8,6.5-1.1,9-3.4.8-.4,1.5-.8,2.3-1.1,5.4-2.8,10-.1,14.7,2.3Z"/>
        <path class="cls-9" d="M303.9,810.3c-2.9,1.7-6.2,1.9-9.3,2.9-2.6.8-4.5.5-5.5-2.1-1.6-3.7-4.1-4.1-7.7-3.1-5,1.3-9.8,3.2-15.4,1.5-2.9-.9-6.5,1.2-6.9,4.4-.6,5.2-4.9,5.2-7.4,4.6-4.1-1-7.1.5-10.8,1.2-5.3,1-11,3.7-16.7,1.5-2.3-.9-3.8-.6-5,1.9-2.4,5-6.5,6.6-11.6,4.5-4-1.6-7.6-1.6-11.2.8-1.7,1.1-3.2.9-5.1-.2-5.2-2.8-10.7-4.9-16.8-4.3-3.7.4-6.8,0-7.3-4.6-.1-1.3-.7-2.1-2.1-2.1-1.3,0-2.2.6-2.3,1.9-.4,3.6-2.3,3.3-4.7,1.9-7.8-4.7-15.9-4.9-24.4-2.4-.7.2-1.8.8-2.1.5-3.8-3.1-7.5-6.4-12.1-1.3,0,0-.8-.2-.9-.5-4-5.3-6.3-1.5-8.8,1.6-.3.4-.9,1.2-1.1,1.1-5.3-1.7-7.3.7-8.4,5.7-.4,1.7-3.2,0-4.1-1-7.8-8.9-16.7-5.7-24.3-.9-7.4,4.7-14.7,4.2-22,2.1-5.8-1.6-9.1-.3-12.4,4.2-3.9,5.3-10.2,8.8-15.7,9.5-4.3.5-10.7-2.7-13.4-8.4-1.6-3.3-3.3-7-8.2-5.2v-2.3c4.1-2.2,7.9-1.5,11.4,1.2,1.8,1.3,3.3,3,5.2,4.2,5.2,3.1,9.1,2.4,13.1-2.2.6-.7,1.1-1.8,2-1.9,6.8-1.6,10.9-7.4,16.9-10.3,1.1-.4,2.3-.7,3.4-1.1,6.9,5.1,14.7,4.3,22.5,3.9.7,0,0,.3.5,0,6.8-4.5,13.9-4.8,21.5-2.4,1,.3,2.4.2,3.3-.6,4.4-3.9,9.6-4.4,15.3-3.9,3.4.3,7.1.4,10-2.6,1.4-1.4,3.3-.8,4.7,0,5.1,3.1,11.3,2.6,16.6,4.8,3.8,1.5,7.3.6,10.6-1.5,2.3-2.4,4.7-4.5,7.7-6,6.1-3.2,10.2-2.2,13.3,4.2,1.8,3.7,3.7,7.2,7.6,9.1,2.5,1.2,4.7,1.8,6.1-1.2,1.5-3.2,4.1-3.8,7.4-3.9,6.7-.2,13.4.6,20.2-.7,3.5-.6,6.5,2.5,9.7,4,3.2,1.5,4.5,1.4,4.9-2.7.8-8.2,4.2-11.7,10.1-11.9,4.2-.2,6.8,1.5,7.8,5.7.4,1.6.4,3.7,2.4,4,1.6.2,2.7-1.4,3.4-2.6,3.7-6.8,8.6-6.6,15.9-5.8,8.7.9,17.4,3.8,26.3,2.1,2.1-.4,3.7-1.6,5.3-3,3.7-3.2,6.9-3,8.1,1.3,1.2,4.2,3.6,4.4,6.6,3.9,4.8-.9,9.6.1,14.4,0,.7,1.5,0,2.7-.9,3.8-.4.4-.9.7-1.4.9-6,2.4-11.2-1.3-16.7-2.4-3.9-.8-7.6-1.5-11.4,0Z"/>
        <path class="cls-48" d="M48.6,814.7c-4.8,3.8-7.6,10.3-15,10.6-.9,0-1.8,1.2-2.5,2.1-5.3,6.4-11.6,7.3-17.5,1.3-4-4-8.3-5.5-13.6-4.9v-3.4c6.2,2,11.3-2.5,17.3-2.7,5.3-.2,10.5-2.3,15.7-3.5,1.4-.3,3.3-.9,4.3-.2,3.7,2.4,7.4,1.7,11.3.8Z"/>
        <path class="cls-53" d="M2339.9,1078.8c-4.6,0-8.8-1.7-13-3.3-4.9-1.8-6.3-6.5-4.6-11.4,1.9-5.2,5.6-9.8,5.2-15.8,0-.6.4-1.4.9-2,2.7-3.3,2.7-3.2-1.1-5.2-.7-.4-1.3-1.5-1.4-2.3,0-1.4,1.4-2.1,2.3-1.7,4,2,7.7-1,11.6-.2v6.8c-4.5,2.5-5.5,7.1-6.9,11.5-.8,2.4.3,4.4,2.3,5.8,2,1.4,3.6,3.2,4.7,5.3v12.4Z"/>
        <path class="cls-26" d="M2339.9,1066.4c-.6-.4-1.2-.8-1.8-1.3-8-6.5-8.6-10.9-3.1-19.4,1.3-2,3.2-1.5,4.9-1.8v22.6Z"/>
        <path class="cls-17" d="M333.2,811.4c.4-1.1.7-2.3,1.1-3.4,1.7-1.5,3.7-2.7,4.2-5.1.7-3.6,3.3-4.8,6.5-5,3.5-.2,6.7.9,8.1,4,2,4.5,5.7,6.2,9.9,7.5,3.8,1.2,7.4,2.6,11.2,3.7,4.8,1.5,8.9-.1,12.6-3,1.3-1,1.6-2.2,1.4-4-.8-6.2.6-9,6.6-10.1,4.9-1,10.2-1,14.8,1.9,2.6,1.7,4.4.7,6.5-1.1,5.4-4.7,7.3-4.6,12.6-.2,1,.8,2.2,2.1,3.2,2.1,5.3-.4,9.4,2.1,13.5,4.7,7.2,4.5,14.6,3.5,22.2,1.7,8.6-2.1,17.1-4.4,23.6-11,1.4-1.4,3.4-2.5,5.7-1.4,6.2,3.2,12,1,17.9-1,6.9-2.3,14.2-1.7,20.8.4,7.7,2.4,15.3,4.5,23.4,4.7,3.4,0,5.7-1.3,7.6-3.9,4.1-5.5,9-6.5,15.8-4.4,7.7,2.3,15.5,4.2,23.3,5.8,7.1,1.5,13.8-1.1,20.2-3.6,7.4-2.8,14-3,20.7,1.7,4.9,3.4,10.4,4.9,16.5,4.4,7.3-.7,14.6.7,21.9-.8,5.1-1,9.1-3.2,11.6-7.9,1.6-3.1,4.4-4.1,7.6-5,11.8-3.4,22.2.9,32.5,5.5,5.9,2.6,12,3.8,18.6,3.8,7.4,0,14.7,1.5,22.2-.9,3.8-1.3,8.5-.4,12.8.5,7.3,1.5,14.5-.5,21.8-1.3,1.5-.2,3-.6,4.4-.5,7.7.8,14-1,18.1-8.3,1.5-2.6,4.8-3.7,7.8-4.1,16.6-2.2,32.8-.6,48.6,4.9,4.4,1.5,9,.9,13.2-.9,4.7-2.1,9.3-1.7,14.3-.8,9.1,1.8,18.4,3.5,27.8,3.5,11.3,0,22.3,2.2,33.4,3.8,13.2,1.9,26.1-.3,39.1-1.8,2.2-.3,4.7-1.8,6.3-3.5,3.2-3.4,7-4.1,10.7-2.2,9.5,4.9,19.7,2.8,29.6,3.6,3.1.3,6.1-1.3,8-3.5,3.5-4.1,7.6-4.7,12.1-3,5.9,2.3,10.8,0,15.3-3,5.1-3.5,9.9-4.9,15.3-.4,1.4,1.1,3.8,2.5,5.1,2,7.9-2.8,15.3.1,22.8,1.3-2.4,5.6-6.2,9.3-12.6,10.3-6.5,1-12.5-.1-18.8-1.6-11.7-2.7-23.7-3.2-35.3,1.4-3.7,1.5-7.6,2.1-11.6,1.6-7.7-.8-15.4-.5-23-.9-10.8-.7-21,3.6-31.6,4.5-5.4.4-10.7,1.5-16.1.6h0c-.3-.2-.6-.5-1-.5-14.7,1.5-29.2-1.8-43.7-3.1-12.6-1.1-25.1-1.5-37.6-1.3-11.8.1-23.2-1.6-34.5-4.6-10.1-2.7-19.8,0-29.6,1.6-.7.1-1.5.4-2,1-6.7,8.8-16.8,8-26.2,9.2-12.2,1.5-24.4,1.6-36.6.5-4.8-.4-9.2,2.2-13.9,1.7-12.1-1.1-24.3-.5-36.5-1.5-6.3-.5-12.4-.3-18,3.1-4.4,2.7-9.4,3-14.3,2.3-14.3-2.1-28.5-.4-42.7.8-6,.5-12,0-17.5-3-4.4-2.4-9-2.7-13.7-1.3-10.4,3.2-20.8,4.6-31.6,1.9-9-2.2-17.8-1.4-26.5,2.1-9.1,3.7-18.5,1.6-27.8.6-11.2-1.1-22.1-4.3-33.5-2.8-8.4,1.1-16.3,4.2-24,7.7-13,5.9-26.1,7.5-39.8,1.7-12.2-5.2-25.4-3.7-38.3-3.6-1.8,0-3.1,1-4.4,2.3-9.5,10-27.5,12.9-40,6.4-3.8-2-7.8-3.6-10.9-6.9-2.6-2.7-5.3-1.6-8.2,0-2.9,1.6-5.2,5.2-9.4,3.7Z"/>
        <path class="cls-17" d="M1574.3,786.5c-4.5,4-9.4,1.9-13.7.3-5.3-2-9.9-1.7-14.4,1.3-2.7,1.8-5.2,1.9-8.4.7-5.4-2.1-11.1-1.4-16.6-.4-4,.7-8.6-2-9.7-5.7-.6-2,1.5-5.3-1.6-5.8-3.4-.5-6.9-1.9-10.4-.5-1,.4-2.1.7-3.1,1.3-4.7,2.4-9.2,1.9-13-1.6-2.9-2.6-5.5-2.7-8.7-1.1-5.5,2.8-10.6,3-16.7.7-9-3.5-18.5-3.6-27.9-1-3.9,1.1-8.3.6-11.3,4.3-.4.4-1.5.7-2,.4-8-3.8-17.6-2.7-25-8.6-5-4-11.2-4.6-17.1-1.9-7.5,3.4-15.6,1.3-23.3,3-5.8,1.3-10.8,2.4-14.8,7.7-3.8,4.9-9.5,8.5-16.5,8.2-5.7-.2-11.5,1-16.9-2.7-2.6-1.8-6.3-.9-9.4-.6-6.3.6-12-1.1-17-4.5-3-2.1-6.1-2.6-9.6-2.3-4.1.3-7.8,0-11.8-2.1-4.8-2.6-10.2-2.1-15.1.9-1.3.8-2.6,1.6-3.8,2.4-7.2,5.1-14.9,6.1-23.3,3.3-7.6-2.6-15.7,0-23.4-2.1-2.6-.7-4.5-1.1-5.3-4-.4-1.4-1.6-2.8-3.3-2.5-1.5.3-2.4,1.6-3,3.1-3.5,9-5.7,9.9-14.4,5.3-2.7-1.5-5.5-.6-8.3-.9,0,0,0,0,0,0-.6-.6-1.9-1-1.1-2.3,7.3-.5,13.6-3,18.8-8.3,7.1-7.2,13.6-4.6,19.2.9,4.2,4.1,8.6,5.8,14.1,5.2,2.9-.3,5.7.3,8.3,1.3,8.7,3.4,15.6,0,22-5.3,7.3-6,19.9-5.6,26.3,1.3,1.5,1.6,3.3,1.7,5.1,1.6,4.3-.2,8.3.8,11.7,3.2,2.1,1.5,4.3,1.3,6.5,1.3,7.8-.3,15.1,1,22.6,3.3,6.4,1.9,13.3,3.6,20-.2,2.2-1.3,3.8-2.7,5.3-4.8,3.1-4.5,7.8-6.3,13.2-7.4,7.7-1.6,15.6-2.3,23.1-4.2,10.9-2.9,19.9,0,28.5,5.9,4.3,2.9,14.1,2.7,18.2-.5,1.4-1.1,2.8-2.1,4.6-2,6.8.4,13.4-1.2,20-2.3,5.4-.9,10.5.6,14.9,3.7,4.4,3,7.9,3.2,12.5-.5,6.3-5,13.8-6.1,19.4.9,4.1,5,8.1,1.5,11.6-.1,11-5,14.8-3.5,17.9,7.6,1.2,4.4,3.2,7.2,8.4,5.4,1.2-.4,2.7-.4,3.9,0,7.7,1.7,14.6,0,21.4-3.8,3.4-1.9,7.7-1.4,11.4.5,3.7,1.8,7.4,3.6,11,5.4Z"/>
        <path class="cls-12" d="M1154.2,778.6c.4.8.8,1.5,1.1,2.3-5-1.9-8.5,0-11.2,4.2-1.3,2-3.6,3.2-5.7,3.3-9.2.7-18.6,3.2-27.7-1.1-2.5-1.2-5.1-1.8-8.1-1-10.3,2.9-21.1,2.9-31.6,4.2-8.5,1-17.5-.5-26.3-.7-10.8-.2-20.9,3.8-31.6,4.1-6.1.2-12.2,1.5-18.2-.6,8.7-1.1,17.3-2.1,26-3.7,9.6-1.9,19-3.7,29.3-2.4,10.7,1.4,21.5.6,32.6-3.1,10.1-3.3,22.2-2.9,33,1.3,5.8,2.2,11.5,1.5,17.1.9,5-.5,7.1-6.3,11.2-8.8,3.4-.1,6.9-.2,10.1,1.1Z"/>
        <path class="cls-48" d="M157.1,811.4c-2.5,3.1-5,4.8-9.5,3-6.1-2.5-13.2-1.3-19-5.3-1.1-.8-2.7-1.4-3.5,0-2.2,4.3-5.5,3.3-9.2,2.4-5.4-1.2-10.5.3-14.9,3.4-2.6,1.9-4.9,2.4-7.8,1.3-4.9-1.9-9.4-1.8-14.4,1-8.5,4.8-21.6,2.5-26.9-3.6,2.9-.2,5.2,1,7.8,2.2,3.7,1.7,8.2,0,12.5.9,4.8,1,6.6-3.2,8.6-7.1,3.3-6.7,11.5-6.7,15.3-.1,1.9,3.4,3.3,5.6,6.5,1.1.8-1.1,2.6-3,4.2-2.1,5.2,2.9,10-.7,15-.5,1.9,0,3-1.3,4.3-2.4,5.6-4.8,11.1-4.7,15.4,1.4,3.6,5.2,7.8,5.9,13.2,4.5.7-.2,1.5,0,2.2,0Z"/>
        <path class="cls-38" d="M745.4,1109.2c-2.7,1-5.1,1-7.8-.9-4.8-3.2-10.8-2.5-16.3-3.6-9.6-1.9-19.2-3.8-26.3-11.4-.5-.6-1.3-1-1.5-1.6-3.5-10.3-12.6-10-20.9-10.5-7-.4-13.1-3.3-19.1-6.2-4.2-2.1-6.7-6.1-6.1-11.1.3-2.2-.6-3.2-2.2-4-16.4-7.3-33.5-12.5-51.4-14.7-2.5-.3-5.1,1-7.7,1.4-3.4.6-7,1.7-6.2-4.4.4-3.7-3.7-4.3-6-4.7-2.6-.4-6.5-.4-7.8,2.8-2.1,5.1-6.8,8.7-10.4,10.6-9.5,5-18.7,12-31.2,8.9-14.3-3.6-28.8,1.2-43.3.9-.6,0-1.3,0-1.6.3-6.4,6.1-14,6-22.2,5.8-4.1-.1-8.3,0-12.1-1.1-8.8-2.3-17.2-4-26.2-.2-8.2,3.4-9.9,2-15.2-6-2.3-3.4-6.4-3.8-10.1-2.9-5,1.3-8.2,6.1-7.5,10.6.4,2.3,2.3,5-.8,6.5-2.8,1.3-6.6,1.5-8.5-.8-9.1-11-18.4-2.6-27.4-.5-3.7.9-6.7,3.5-11,1.1-1.9-1.1-5.1-1.2-6.9.7-6.1,6.6-15,7.8-22.4,11.9-2.6,1.4-4.8,3.4-8,4-4.4.9-8.5.2-12.6-.8-5.1-1.2-9.4-.7-12.5,4.6-2.1,3.7-5.3,5.6-10.4,4.5-5.3-1.2-12,0-15.7,2.4-8.7,5.5-17.9,3.7-26.9,5-2.3.3-4.5.9-6.1,2.6-2.8,2.9-5.3,2.2-6.7-.9-2-4.5-3.7-5.6-8.1-2.1-1.9,1.6-4.2,2.9-6.1,4.7-1,.9-2.1,1.8-3.4.4-1.3-1.4-1-2.8.3-3.9,1.7-1.4,4.5-2.4,2.4-5.1-1.7-2.3-4-.6-6.2,0-4.3,1-7.7,2.8-9.1,7.3-.2.5-.7,1.2-1.1,1.2-8.1.1-13.1,7.7-20.9,8.7-6.3.8-10.1,5.4-14,9.8-.5.5-.7,1.3-.8,2-.6,6.4-2.8,7.7-9.3,6.7-10.2-1.6-20.5-2.3-30.8-1.8-3.3.2-5.9,2.8-9,2.9-7.3.2-13,5.8-20.6,5.2-4.9-.4-8.1-1.6-9.8-6.4-3.6-10.1-8.3-12.6-19.1-10.5-7,1.3-7.9.6-7.7-6.5,0-1.7.3-3.8-1.6-4.4-2-.6-2.1,1.6-2.7,2.9-.4,1,.3,3.1-2.1,2.2-1.8-.7-3.1-2.1-2.4-3.9,2.1-5.7.2-7.1-5.4-6-1.6.3-2.9-1.2-3.9-2.8-4.8-7.6-1.2-20.6,7.4-22.7,4.6-1.1,9.6-.7,14.3-2.9,11.6-5.5,22.2-12.2,31.5-21.1,4.5-4.3,9.1-8.4,13.7-12.5.7-.6,1.7-1.5,2.3-1.4,7.4,1.7,8.6-5.1,12.1-8.6,1.2-1.2.8-2.6.7-4.1-.4-5.9,5.9-10.7,11.7-9.1,7.4,2,14.7,1.3,22.2.4,5.3-.6,11.3-3.5,16.2,0,7.8,5.4,13.5.7,19.1-3.1,3.8-2.6,7.5-3.7,11.9-3,3.8.6,7.4-.6,11-.9,1,0,1.9-.6,1.9-1.7.6-10.2,9.3-10.6,16.1-12.7,5.3-1.6,11.1-1.2,16.5-3.2,3-1.1,5.8-.1,8.5,1.6,8.7,5.6,18.4,5.3,27.9,3.3,5.9-1.2,10.4-.2,14.2,4,1.9,2.1,2.9,3.5,5.6.5,3.4-3.8,7.7.8,11.6-.2,1.2-.3,3.4,1.2,4.2,0,3.2-4.9,8.2-4.8,13-5.9,3.3-.7,5.7-3,6-7.1.2-2.4.7-4.8.8-7.2,0-1.8-.5-4.5,2-4.5,2.3,0,1.1,2.7,1.3,4.2,1.1,7,7.3,7.8,12.2,10.2,3.8,1.9,6.4,0,8.8-2.8.9-1,1.8-1.9,2.8-2.8,3.9-3.5,5.9-7.3,2.6-12.3-.8-1.2-.9-2.8-1.4-4.8,6.2,1.6,7.3,7.1,9.9,11,1.8,2.8,3,4.1,6.9,3.6,5.2-.7,10.2-1.8,15.3-3,4.7-1.1,10,.2,15,.5,3.6.2,6.7-.1,8.6-3.9.5-1,2-2.2,3.1-2.2,6.2.2,11.2-4.1,17.3-4.1,1.4,0,3.2-.4,4.2-1.2,6.4-5.1,12.3-2.7,18.1,1,3.8,2.4,7.3,4.9,12.2,5.1,3.8.2,7.7,2,6.8,7.1-.8,4.5,3.7,4.5,5.2,7.1,2.2,3.7,4.4,2.9,6.9.1,1.3-1.5,2.3.3,3.1,1.2,3.8,4.1,4.9,4.2,7.1-1,1.5-3.6,3.1-4.6,6.1-1.9,5.1,4.6,10,1.7,14.2-1.1,7.7-5.2,13-5.3,20.4,1,2.1,1.8,4,3.3,6.9,3,1.4-.1,2.5.6,3.3,1.8q5.4,8.3,13.7,4.7c0,1.1,0,2-.2,2.8-1.9,8.5,3.2,17.3,11.7,18.5,5.8.8,9.8-4.1,14.2-7.1,2.7-1.9,1.5-5.1.7-7.8-.2-.7-.3-1.5-.4-2.2-2-8.3-2-8.1,6.6-8.5,9.1-.5,18.2-2.3,27.4-2.3,3.7,0,6.4,1.3,7.6,4.6,1.3,3.5,3.8,4.5,7,4.5,11.8,0,23.5,0,35.3,0,3.6,0,4.3-1.5,4.4-4.7.2-9.7,2.7-11,12.5-12.5,9.4-1.5,18.6,1.2,27.8-.9,2-.4,4.6-.6,5.8-1.9,5-5.7,12.2-5.3,18.5-7,10.9-2.9,22.1-3.4,33.3-4.4,4.7-.4,9.6.8,14.5,1.3,10.7,1.1,21.4,2,31.9-.7,10.4-2.7,21.3-4.2,31.6-3.8,19.9.8,40-2,59.7,3.1,3.1.8,6.5-.2,7.1,4.3.6,0,1.1,0,1.7.1,6.5,1.6,13.1,3.7,18.5-2.6,3.8-2.5,8-1.4,11.9-.8,17.3,2.4,34.4-.4,51.5-1.1,4.5-.2,9-.1,13.5-.2,13.7-.4,27.2-1.8,40.3-6.4,3.7-1.3,7.7-2,11.6-1.5,12.2,1.5,24.8-.3,36.6,4.7.5.2,1,.5,1.6.6,9.8,3.5,10.6,7.1,3,14-2.3,2.1-4.8,4.2-7.3,6.2-4,3.1-2.6,5.6.7,8,2.6,1.8,5.3,3.5,8.5,4.4,1.4.4,2.8,1.1,4.2,1.7,3.8,1.7,10.5,15.9,9.5,19.5-.8,3.1-3,4.8-5.4,6.1-4.6,2.4-3.8,4.8-.4,7.5.9.7,1.9,1.3,2.7,2,1.8,1.5,4.6,2.7,3.8,5.7-.9,3.4-1.6,7.1-5.8,8.4-3.8,1.1-8.4,1.6-10.7,4.6-5.3,7-11.8,12.3-18.7,17.4-1.6,1.2-1.9,3.3-.3,5.5,2.1,2.7,3.9,5.6,7.1,7,5.6,2.4,9.1,7.1,12.8,11.6,1.6,1.9,1.5,3.7,0,5.6-1.5,2-1.6,4.5-2.4,6.7-2.7,7.2-4,14.5-5.3,22.1-1.2,7.3,2.3,14.1,9.8,14.6,3.5.2,7.2-.3,10.4,1.7,1.3.8,2.7,0,3.7-.6,5.5-2.9,11.5-3,17.4-3.3,4-.2,6.9-1.7,8.5-5.4,1-2.2,2.2-4,5-3.7,4.4.4,7.4-2.1,10.1-5,2.5-2.7,5.3-4.6,9.4-3.5,4.1,1.1,7.1-1.6,10-4,1.4-1.1,2.2-2.7,4.1-1.1,5.6,4.9,12,3.3,18.2,1.8,4-1,7.8-1.2,11.5.8.8.4,1.9.9,2.7.7,6.4-2.3,12.1.2,17.9,2.3,5.4,1.9,9.2,5.1,10.2,11,2,11.7,4.8,16.5,19.8,14,1.6-.3,3.7-.6,5,.2,4.6,2.7,9.3,3,14.5,2.1,4.2-.8,5.6,2.4,5.8,5.9.2,3,0,6,1.7,8.7.9,1.5.7,3.3-.9,3.9-4.9,1.7-4.5,5.8-4,9.3.6,3.9-.5,7-2.7,9.9-1.9,2.4-3.7,4.7-4.8,7.6-1.1,2.7-3.2,3.9-5.8,3-2.6-.9-4.5-.3-6.8,1-2.7,1.5-5.8,2.9-8.9,3.4-6.6,1.1-10.2,5.3-12.4,11-.9,2.3-1.9,4.1-4.3,4.8-8.1,2.3-10.2,9.8-13.4,16.2-1,1.9.7,4.3,1.7,6.3,1.1,2.2,1.9,4.4,2,6.9.2,4.3-1.2,6.5-5.8,6-2.9-.3-5.5.2-7.7,2.4-1.9,2-4.7,2.5-7.4,1.9-4.6-1-9.3-1.7-13.6-3.4-6.1-2.4-12.6-1.8-18.7-3.2-3.1-.7-5.2,1.2-7.3,3.3-4.3,4.3-11.1,4.7-15.4.3-3.8-3.8-8.8-5.7-13.2-8.5-2.9-1.8-5.9-2.2-9.3.1-3.5,2.5-7.7,5.1-12.5,1.9-1.2-.8-2.7-.6-3.7.3-6.4,5.3-15,3.7-22.1,6.8-.3.1-.8.2-1.1.1-10.4-3.3-15.8,3.5-21.2,10.4-1.8,2.3-4.5,3.6-7.3,4.1-12.8,2.1-25.4.5-37.2-4.8-3.4-1.5-4.3-6.7-9-7.5-.9-.2.4-1.7,1.5-2.1,5.2-2.1,6-5.9,4.6-11-1.7-6.4-2.4-13-10.1-15.5-3-1-5.5,0-8.2.4-2.2.3-4.7-.2-4.8-2.7-.1-2.3,2.4-1.6,4-1.8,3.9-.4,7.8-.8,11.7-1.2,3.3-.3,4.1-2.2,3.3-5.1-1.2-4.7-3.8-8.5-7.6-11.5-1.6-1.3-3.4-2.6-3.3-5,0-1.7,0-4.1,2.7-2.1,2.9,2.1,5,.4,6.1-1.7,1.9-3.7,4.7-5.5,8.6-5.9,1.9-.2,3.8-.9,3.9-3.3.1-2.2-.8-4.1-2.4-5.4-1.4-1.1-2.9-1.8-4.2.4-2.5,4.2-7.3,4.9-11,7.3-1.1.7-2.4,1.1-3.5-.3-1-1.2-.8-2.4,0-3.7,1.7-2.9,4.4-4.4,7.5-5.6,8.2-3.2,14.3-8.4,15-18,.2-2.9,2.5-4.1,4.6-4.2,3.3,0,6.4-1.5,9.9-.7,4.1.8,7.3-2.6,8.5-6,.9-2.6-1.6-5.1-4.7-6-3.8-1.2-5.3-6.7-10.5-5.6-4.6,1-9.4,1.1-13.5,3.5-3.7,2.1-7.2,1.9-11.3,1.2-14.1-2.4-27.8-6.6-42.5-6.2-7,.2-14.5-.1-21.8-1.6-6.3-1.3-12.8,1-19.5-.1-14.5-2.5-29.5.3-43.9-5.2-6.5-2.5-14.3-1.1-21.6-.8-23.5,1-46.6-2.4-69.5-7.9-14.1-3.4-28.4-6.6-43.1-6.7-2.4,0-4.9-.5-7.1-1.3-2.3-.9-6-1.3-6.1-4.2,0-2.8,3.1-4.4,5.4-5.9,1.9-1.2,4-.9,6-.9,2.7-.6,5.2,2.2,8.2.5,4.9-2.8,5.3-5.4,1.5-12.8-3.1-1.7-6.2-1.2-9.3-.2-1.7,1.1-1.8,3.4-3.4,4.6Z"/>
        <path class="cls-52" d="M845.9,884.4c-.2,4.1-.4,6.9,3.8,9,4.1,2.1,1.2,6.9-.1,9.5-1.3,2.5-.1,6.8-3.6,7.6-4.7,1.1-9.6,1.4-14.4,2-1.3.2-2.1-.9-2.4-2-1.7-4.9-5.2-9.1-5.7-14.5,0-.7-.3-1.5-.6-2.1-1-2.6-4.8-4.7-3.5-7.2,2.2-4.3,5.7-7.8,8.7-11.6,1.1-1.4,2.4-1.4,4-.8,2.8,1.1,5.6,2.1,8.5,2.9,4.2,1.1,6.6,3.4,5.5,7.3Z"/>
        <path class="cls-37" d="M795.1,926.2c-.7,12.3-4.7,15.5-18.2,14.9-2.4-.1-9.7-11.1-9.7-14.5,0-2.4,11-12.2,13.3-11.9,5.9.7,14.8,7.7,14.6,11.5Z"/>
        <path class="cls-11" d="M1925.2,982.9c-3-.6-7.1,1.1-8.6-1.7-2.2-4.2-3.1-9.2-4.2-13.9-.4-1.6,11.2-10.1,13.4-10.2,2.1,0,13.6,9.8,13,11.6-1.4,4.4-2.9,9-5.3,13-1.8,2.9-5.6.6-8.4,1.2Z"/>
        <path class="cls-11" d="M1344.9,978.9c0,3.7-8.5,9.6-13.8,9.5-2,0-10.7-9.2-10.8-11.5-.2-2.7,7.4-12.8,9.7-12.8,9.8-.3,14.7,4.6,15,14.8Z"/>
        <path class="cls-36" d="M897.1,895.8c7.8,0,12.5,4.9,12.8,13.2,0,2.1-9.8,10.6-12.2,10.5-2.3,0-12.6-8.1-12.1-9.8,1-4.3,1.9-8.9,4-12.7,1.4-2.5,5.2-.6,7.6-1.1Z"/>
        <path class="cls-41" d="M933.1,893.6c-6.6,0-11.5-5.6-11.2-13,0-1.5,9.5-9.2,11.3-9.3,2.6,0,11,7.6,11,10,0,8.1-3.9,12.2-11.1,12.2Z"/>
        <path class="cls-44" d="M929.1,979.4c-2.5,1.9-3,7.1-6.2,6.4-4.7-1-10-.4-14-3.9,0-1.3.2-2.6.2-3.9,0-9.3,0-9.4,8.5-12.3,2.6-.9,5.6-3.4,7.8.6,2.3,4.1,8.9,7,3.7,13.2Z"/>
        <path class="cls-51" d="M974.2,864.2c2.8-.1,4.7.4,5.6,3.5.8,3,.4,5.2-2.4,6.6-1.9.9-2.6,2.5-3.1,4.3-1.5,5-7,8.2-12,7.1-2.9-.6-7-9.8-5.3-12,4.3-5.8,10.9-7.6,17.3-9.5Z"/>
        <path class="cls-23" d="M1655.9,843c9.2.1,12.3,3.1,12.1,11.7,0,2.1-8.4,8.3-11.1,8.3-2.6,0-10.3-7.3-10.2-9.6.3-4.5,5.4-10.3,9.2-10.3Z"/>
        <path class="cls-49" d="M913.9,939.1c-2.4.3-9.4-5.8-9.9-8.7-.4-2.1,5.9-10.4,8.1-10.6,4.6-.5,11.5,2.9,11.9,5.7,1.2,9.5-1,12.5-10.1,13.6Z"/>
        <path class="cls-29" d="M2020.2,887.2c0,5.5-4.2,8.9-10.7,8.9-2.9,0-10.3-6.9-10.2-9.4.1-2.4,7.7-9.8,10-9.7,7,0,10.9,3.7,10.9,10.2Z"/>
        <path class="cls-19" d="M960.7,923.1c-2.8.5-5-.5-5.8-3.6-.6-2.3-2.1-3.7-3.6-5.4-2.2-2.5-4-5.5-.2-8.7,3.6-3.1,6.3-.7,8.1,1.5,1.6,2,3.5,3.3,5.5,4.5,3.5,2.1,3,4.8,2.2,8.2-.9,3.6-3.3,3.6-6.1,3.4Z"/>
        <path class="cls-39" d="M1290.7,1033.7c-5.4,1.1-5.9-3.6-6.2-7-.4-3.9,3.4-5.4,6.6-6.5,1.6-.5,8.3,4.5,8.2,5.8-.1,4.1-4,7.7-8.6,7.6Z"/>
        <path class="cls-28" d="M1002.9,929.9c-4.9-.1-7-2.5-6.5-8.1.3-4,4.4-5.2,7-5.1,3.4,0,6.1,3.4,7.9,6.3,1.1,1.8-5.4,7-8.4,7Z"/>
        <path class="cls-30" d="M1246.8,954.4c-.3-5.6,4.2-6.5,7.1-6.7,2.9-.2,6.2,3.2,6,6.2-.2,2.7-1.3,7-5.5,7.1-5.8.2-7.6-1.8-7.5-6.6Z"/>
        <path class="cls-25" d="M979,926.5c-3,0-5.3-.2-5.4-4,0-4.3,3.4-4,5.8-4.5,2.9-.6,4.9,1.8,4.8,4.1-.2,2.4-1.9,4.9-5.2,4.4Z"/>
        <path class="cls-6" d="M1034.5,795.6c.6-.4,1.3-1,1.9-1,9.3.4,18.6-1,27.9-1.2,1.5,0,3-.3,4.1,1.1-5.6-.2-11.1.3-16.6,1.9-5.7,1.7-11.4-1.6-17.2-.7Z"/>
        <path class="cls-6" d="M1068.4,794.4c10.5,0,21.1,0,31.6,0-1.5,1.7-3.9,1.8-5.7,1.9-8.7.5-17.4-.4-25.9-1.9Z"/>
        <path class="cls-6" d="M1122.6,794.5c4.5-.8,9-1.5,13.6-2.3-4.3,2.1-8.5,4.6-13.6,2.3Z"/>
        <path class="cls-12" d="M333.2,811.4c3.3-2,6.9-3.7,9.9-6.1,3.1-2.5,5.1-1.7,7.8.6,8.4,7,17.5,11.8,29,11.4,6.4-.3,11.2-4.1,17.1-5.2,1.2-.2,1.3-1.6,1.8-2.7,1.9-4.1,4.3-6.4,9.6-5.2,4.4,1,9.2,1,13.8.4,8.6-1.2,16.3,1.6,23.8,4.7,12.7,5.3,24.3,3.4,36.3-2.2,15.6-7.3,31.9-11.4,49.3-6.9,7.6,2,15.5,2.3,23.3,3.3,4.6.6,9.3.3,13.7-2.1,10.1-5.3,20.9-3.5,31.4-2,8.7,1.2,17.1,1.1,25.3-2.2,4.4-1.8,9.5-3,13.6-.4,10.9,7,22.4,4.5,33.8,3,7.9-1,15.6-1,23.5,0,6.9.8,13.9,1.7,20.2-2.5,5.8-3.9,12.3-2.7,18.6-2.5,11.8.5,23.8,3.3,35.2,1.5,12.5-2,24.6.7,36.8-.6,10-1.1,20-2.3,30-3.7,1.5-.2,3.2-1.3,4.3-2.5,10.1-10.7,23.2-9,35.4-7.4,11.8,1.5,23.3,4.6,35.4,4.8,22.5.5,45.2.5,67.5,5.2,5.1,1.1,10.5-1.3,15.4,1.3-5.2,0-10.4.2-15.7,1-7.9,1.1-15.6-1.1-23.3-2.5-15.5-2.9-31-2.7-46.3.5-6.8,1.4-13.2.2-19.2-1.8-10.7-3.7-21.6-4.3-32.7-3.8-4.2.2-7.9,2.2-11.4,4.5-5.8,3.7-11.8,5.5-19,5.8-15.5.6-31.1.1-46.6,1.2-11.4.8-22.7-.9-34,0-6.6.5-13.3.4-19.9,2.8-9.8,3.6-20.5,3.5-30.6,2.2-11.9-1.5-23.6-.5-35.3.5-7,.6-13.7-.4-20.4-1.9-7.8-1.7-15.4-2.3-23.3,0-5,1.5-10.1,2.4-15.4.6-11.9-4.1-23.6-2.3-35.2,1.4-7.9,2.5-16,.8-23.9.3-11.5-.8-23-4-34.6-2.8-7,.7-13.9,2.4-19.8,6.8-6,4.5-13.5,4.4-20.4,5.3-8.3,1.1-16.7.4-24.8-3.3-4.8-2.2-10.1-3.8-15.8-2.3-1.5.4-3.3-.2-5-.4-6.3-1-11.9-.6-17.8,2.9-15.5,9.4-31.9,10.9-48.7,3.2-.2,0-.4,0-.5-.2-5.4-7.9-10.1-3.1-15.6.3-5.3,3.3-11.4,4-17.8,2.6-2.9-.6-4.2-2.1-4.6-4.8,1.8-1.3,3.9-.7,5.2.3,3.8,2.7,7.2,1.9,10.6-.3h0Z"/>
        <path class="cls-17" d="M333.2,811.4c-3.1,3.6-6.6,4.3-10.6,1.5-1.5-1-3.3-1.7-5.2-1.5-4.4-1.1-9-1.3-13.5-1.1,2.9-2.2,5.9-2.1,9.4-1.4,6.5,1.3,13,3.8,19.9,2.5Z"/>
        <path class="cls-54" d="M1852.1,805.7c-.5.9-1.3,1.1-2.3,1.1-6.1-2.8-12.6.7-18.7-1.1-1.2-.4-2.9-.1-3.7-.8-6.4-5.2-13.8-5.3-21.4-4.8-8.1.5-15.7-3.5-23.9-2.3-8.1,1.2-15.7-1.9-23.3-3.8-2.4-.6-4.3-.4-6.4.6-5.3,2.6-10.7,4.3-16.7,2.3-3.7-1.2-6.4,1.7-9.3,3-5.5,2.6-9.3.9-12.6-3.5-6-8.1-13.5-10.4-23.2-7.4-6.7,2.1-13.8,2.7-20.5,5.1-4.8,1.7-9.9-.3-14.4-3,7,.9,13.6-1.8,20.4-2.2,6.5-.4,12.7-1.8,19-3.3,2.3-.5,5.1-.9,7.2.6,5.8,4.2,13.8,3.8,19.2,8.7.4.3,1.2.7,1.5.5,7.6-3.6,16,.1,24-2.9,7.8-2.9,16.2-4,24.1,1.2,3.8,2.5,8,2.8,12.8,2.4,15.1-1.1,30.6-3.9,44.4,6,4.1,2.9,9.3.3,14,2.1,2.8,1.1,6.5,1.2,9.9,1.4Z"/>
        <path class="cls-54" d="M2167.1,808c-3.7,1.7-6.9,3.9-9,7.6-1.7,3.1-5,2.6-8,2.6,3.7-1.3,6.8-3.2,8.8-6.9,1.7-3.2,4.9-3.7,8.2-3.3Z"/>
        <path class="cls-54" d="M2019.2,805.7c-5.3,2.4-10.9.4-16.3.7-1.4,0-2.8-1.1-2.9-2.9,6.3,1.4,12.7,2.3,19.2,2.3Z"/>
        <path class="cls-54" d="M2266.5,821.5c-4.8-1.2-9.5-3.6-14.7-2.3,4-3.4,9.7-2.5,14.7,2.3Z"/>
        <path class="cls-54" d="M2320.7,838.5c-4.2-.2-8.3-1.7-12.5.4-1.1.6-2.5-.4-3.3-1.5,5.4-1.2,10.8-2.7,15.8,1.1Z"/>
        <path class="cls-54" d="M2190.8,818.1c-5.3.2-9.6-1.1-11.3-6.8,3.3,3.1,7,5.5,11.3,6.8Z"/>
        <path class="cls-54" d="M2136.6,821.5c-4.8,2.5-9.2.9-13.6-1.1,4.6-.3,8.9,1.8,13.6,1.1Z"/>
        <path class="cls-54" d="M2275.5,829.4c-3.3-1.4-7-2.5-7.9-6.8,2.5,2.4,6.1,3.5,7.9,6.8Z"/>
        <path class="cls-54" d="M1881.4,801.2c-4.1,0-8.3,0-12.4,0,4.1-1.8,8.3-1.8,12.4,0Z"/>
        <path class="cls-54" d="M2150.2,818.1c-2.8,1.7-6,1.6-9,2.3,2.2-3.8,6-1.7,9-2.3Z"/>
        <path class="cls-54" d="M2249.6,820.4c-2.2,3.3-5.9,2.5-9,3.4,2.4-2.8,6-2.2,9-3.4Z"/>
        <path class="cls-53" d="M704,1024.6c-6.6,1-13.2-2.5-20.2-3.5-1.4-.2-2.4-1-2.7-2.5-.4-1.8.5-2.9,2-3.5,6.1-2.3,12-5.4,18.5-6.1,4.4-.5,8.8-1.2,13.3-1.6,4.7-.4,7.1,2.6,5.5,7.1-3.5,9.6-4.3,10.1-16.5,10.1Z"/>
        <path class="cls-18" d="M820,1065.3c8,1.2,6.2,8.4,7.9,13.3,1.6,4.7-3,5.5-5.5,7.1-2.7,1.7-5.1,5.4-8.7,3.9-4.7-2-7.8-6.3-11.2-10-.8-.9-.2-2.1.3-3.1,1.7-3.7,3.2-7.4,4.9-11.2,4.2-.8,8.3-.9,12.5,0Z"/>
        <path class="cls-24" d="M719.4,1072c-2.9-2.7-1.9-6.6-3.2-9.8-.2-.6,0-1.9.4-2.1,3.7-2,7.2-4.9,11.5-4.8,3.8.1,6.8,3.2,7.8,6.4,1.3,4.1-2.3,7.5-4.1,11.1-4.1-.4-8.3.4-12.3-.8Z"/>
        <path class="cls-53" d="M282.3,1066.3c-4.1.6-5-2.6-5-5.3,0-2.9,2.4-4.8,5.3-4.7,2.9.1,5.2,2.2,5.2,5,0,2.9-1.7,5.5-5.4,5Z"/>
        <path class="cls-53" d="M719.4,1072c4.1-.1,8.3,0,12.3.8-4.2,1.1-8.3.9-12.3-.8Z"/>
        <path class="cls-53" d="M820,1065.3c-4.2,0-8.3,0-12.5,0,4.2-1.8,8.3-1.8,12.5,0Z"/>
      </g>
    </g>
  </g>
</svg>